<svg width="233" height="240" viewBox="0 0 233 240" fill="none" xmlns="http://www.w3.org/2000/svg">
<path fill-rule="evenodd" clip-rule="evenodd" d="M5.19717 206.19C5.36902 206.674 23.4168 254.371 80.2198 235.645C111.377 225.368 147.055 208.098 186.273 184.311C223.956 161.451 240.31 119.791 228.952 75.5805C218.633 35.4382 183.441 5.06905 141.384 0.0164032C141.302 0.00410461 141.221 0 141.139 0C140.14 0 139.273 0.725891 139.118 1.73888C138.95 2.838 139.682 3.8674 140.771 4.06836C141.118 4.12987 175.77 10.7779 182.394 34.212C192.312 69.2975 137.33 90.2914 100.943 104.182C97.7766 105.392 94.7325 106.557 91.8561 107.676C69.639 116.342 59.4838 121.181 46.6241 127.309C43.089 128.994 39.3493 130.774 35.0982 132.763C-16.8031 157.005 5.03351 205.858 5.19717 206.19Z" fill="url(#paint0_linear)"/>
<defs>
<linearGradient id="paint0_linear" x1="130.003" y1="277.052" x2="324.959" y2="104.408" gradientUnits="userSpaceOnUse">
<stop stop-color="#00DFC1"/>
<stop offset="1" stop-color="#3C54F0"/>
</linearGradient>
</defs>
</svg>
