<svg width="232" height="240" viewBox="0 0 232 240" fill="none" xmlns="http://www.w3.org/2000/svg">
<path fill-rule="evenodd" clip-rule="evenodd" d="M4.69717 205.57C4.86902 206.053 22.9168 253.606 79.7198 234.937C110.877 224.69 146.555 207.472 185.773 183.756C223.456 160.965 239.81 119.431 228.452 75.3531C218.133 35.3316 182.941 5.0537 140.884 0.0162506C140.802 0.00398254 140.721 -0.000106812 140.639 -0.000106812C139.64 -0.000106812 138.773 0.723602 138.618 1.73355C138.45 2.82936 139.182 3.85567 140.271 4.05602C140.618 4.11734 175.27 10.7454 181.894 34.109C191.812 69.089 136.83 90.0198 100.443 103.869C97.2766 105.075 94.2325 106.236 91.3561 107.352C69.139 115.992 58.9838 120.817 46.1241 126.926C42.589 128.606 38.8493 130.381 34.5982 132.364C-17.3031 156.533 4.53351 205.239 4.69717 205.57Z" fill="url(#paint0_linear)"/>
<defs>
<linearGradient id="paint0_linear" x1="107.446" y1="281.477" x2="309.986" y2="119.758" gradientUnits="userSpaceOnUse">
<stop stop-color="#CE6CFF"/>
<stop offset="1" stop-color="#3C54F0"/>
</linearGradient>
</defs>
</svg>
