<svg width="121" height="40" viewBox="0 0 121 40" fill="none" xmlns="http://www.w3.org/2000/svg">
<path fill-rule="evenodd" clip-rule="evenodd" d="M110.617 0.00013H10.0166C9.64991 0.00013 9.28761 0.00013 8.92188 0.00213C8.61573 0.00413 8.31202 0.00994 8.00293 0.01483C7.33145 0.0227318 6.66154 0.0818063 5.99903 0.19154C5.33746 0.303663 4.69661 0.515046 4.09815 0.81854C3.50043 1.1246 2.95428 1.5223 2.4795 1.9972C2.00224 2.47077 1.6044 3.01815 1.30128 3.61829C0.997334 4.21724 0.786574 4.85907 0.676284 5.52161C0.564945 6.18331 0.505032 6.85265 0.497084 7.52361C0.487804 7.83021 0.486824 8.13783 0.481934 8.44447V31.5587C0.486824 31.8692 0.487804 32.17 0.497084 32.4806C0.505034 33.1516 0.564947 33.8209 0.676284 34.4825C0.78627 35.1455 0.997042 35.7877 1.30128 36.3868C1.60426 36.985 2.00215 37.5302 2.4795 38.0011C2.95248 38.4781 3.49899 38.8761 4.09815 39.1798C4.6966 39.4841 5.33738 39.6968 5.99903 39.8106C6.66165 39.9195 7.33149 39.9786 8.00293 39.9874C8.31202 39.9942 8.61573 39.9981 8.92188 39.9981C9.2876 40.0001 9.64993 40.0001 10.0166 40.0001H110.617C110.976 40.0001 111.341 40.0001 111.701 39.9981C112.005 39.9981 112.318 39.9942 112.623 39.9874C113.293 39.9791 113.961 39.92 114.623 39.8106C115.286 39.696 115.929 39.4834 116.531 39.1798C117.129 38.8759 117.675 38.478 118.148 38.0011C118.624 37.5284 119.023 36.9836 119.33 36.3868C119.632 35.7872 119.84 35.1451 119.949 34.4825C120.06 33.8208 120.122 33.1516 120.134 32.4806C120.138 32.17 120.138 31.8692 120.138 31.5587C120.146 31.1954 120.146 30.8341 120.146 30.4649V9.53626C120.146 9.17005 120.146 8.80677 120.138 8.44447C120.138 8.13783 120.138 7.83021 120.134 7.52357C120.122 6.85255 120.06 6.18337 119.949 5.52157C119.84 4.85941 119.631 4.21763 119.33 3.61825C118.712 2.41533 117.734 1.43616 116.531 0.81845C115.929 0.515697 115.286 0.30437 114.623 0.19145C113.961 0.0812328 113.293 0.0221378 112.623 0.01469C112.318 0.00981 112.005 0.00395 111.701 0.002C111.341 0 110.976 0 110.617 0V0.00013Z" fill="#A6A6A6"/>
<path fill-rule="evenodd" clip-rule="evenodd" d="M8.9268 39.125C8.62212 39.125 8.3248 39.1211 8.02251 39.1143C7.39629 39.1061 6.77154 39.0516 6.15337 38.9512C5.57696 38.8519 5.01857 38.6673 4.49663 38.4033C3.97947 38.1415 3.50778 37.7983 3.09963 37.3867C2.68557 36.98 2.34085 36.5082 2.07912 35.9902C1.81451 35.4688 1.63138 34.9099 1.53612 34.333C1.43324 33.7131 1.37758 33.0863 1.36962 32.458C1.36328 32.2471 1.35498 31.5449 1.35498 31.5449V8.44434C1.35498 8.44434 1.36382 7.75293 1.36967 7.5498C1.3773 6.92248 1.43263 6.29665 1.5352 5.67773C1.63064 5.09925 1.81391 4.53875 2.07866 4.01563C2.33943 3.49794 2.68224 3.02586 3.0938 2.61768C3.5049 2.20562 3.9781 1.8606 4.49614 1.59521C5.01689 1.33209 5.57422 1.14873 6.14946 1.05127C6.76966 0.949836 7.39658 0.894996 8.02497 0.88721L8.92729 0.875H111.696L112.609 0.8877C113.232 0.895099 113.853 0.94945 114.467 1.05029C115.048 1.14898 115.612 1.33362 116.138 1.59814C117.176 2.13299 118.021 2.97916 118.553 4.01807C118.814 4.53758 118.994 5.09351 119.088 5.66699C119.192 6.29099 119.25 6.92174 119.262 7.5542C119.265 7.8374 119.265 8.1416 119.265 8.44434C119.273 8.81934 119.273 9.17627 119.273 9.53613V30.4648C119.273 30.8281 119.273 31.1826 119.265 31.54C119.265 31.8652 119.265 32.1631 119.261 32.4697C119.25 33.0909 119.192 33.7104 119.09 34.3232C118.997 34.9043 118.815 35.4675 118.55 35.9932C118.287 36.5056 117.944 36.9733 117.535 37.3789C117.126 37.7927 116.654 38.1379 116.135 38.4014C115.61 38.6674 115.048 38.8527 114.467 38.9512C113.849 39.0522 113.224 39.1067 112.598 39.1143C112.305 39.1211 111.999 39.125 111.701 39.125L110.617 39.127L8.9268 39.125Z" fill="black"/>
<path fill-rule="evenodd" clip-rule="evenodd" d="M25.2509 20.3008C25.2728 18.6043 26.1622 17.0373 27.6075 16.1488C26.6916 14.8407 25.2124 14.041 23.6163 13.9911C21.9371 13.8148 20.3091 14.9959 19.4534 14.9959C18.5812 14.9959 17.2637 14.0086 15.8449 14.0378C13.9782 14.0981 12.2802 15.1337 11.372 16.7656C9.43801 20.1141 10.8806 25.0351 12.7332 27.7417C13.6601 29.0671 14.7434 30.5475 16.1608 30.495C17.5479 30.4375 18.0659 29.6105 19.7402 29.6105C21.399 29.6105 21.885 30.495 23.3312 30.4616C24.8196 30.4375 25.7574 29.1304 26.6517 27.7925C27.3177 26.8481 27.8302 25.8044 28.1702 24.7C26.4024 23.9523 25.253 22.2202 25.2509 20.3008Z" fill="white"/>
<path fill-rule="evenodd" clip-rule="evenodd" d="M22.5193 12.2108C23.3308 11.2366 23.7306 9.98445 23.6338 8.72021C22.394 8.85044 21.2487 9.44299 20.4262 10.3798C19.614 11.3041 19.2026 12.5134 19.2825 13.7412C20.539 13.7542 21.7319 13.1901 22.5193 12.2108Z" fill="white"/>
<path fill-rule="evenodd" clip-rule="evenodd" d="M38.051 27.1397H42.7844L43.9202 30.4961H45.9592L41.4758 18.0781H39.3928L34.9094 30.4961H36.9143L38.051 27.1397ZM42.2933 25.5908H38.5413L40.3919 20.1436H40.4436L42.2933 25.5908Z" fill="white"/>
<path fill-rule="evenodd" clip-rule="evenodd" d="M51.8636 30.591C54.136 30.591 55.6419 28.7834 55.6419 25.9699C55.6419 23.1643 54.1272 21.3479 51.8294 21.3479C50.647 21.3097 49.5394 21.9247 48.9466 22.9485H48.9124V21.4426H47.1135V33.4914H48.9719V29.007H49.0149C49.5825 30.0372 50.6889 30.6525 51.8636 30.591ZM51.3391 22.9319C52.7844 22.9319 53.7317 24.1369 53.7317 25.9699C53.7317 27.8196 52.7845 29.0158 51.3391 29.0158C49.9192 29.0158 48.9641 27.7942 48.9641 25.9699C48.9641 24.1623 49.9192 22.9319 51.3391 22.9319Z" fill="white"/>
<path fill-rule="evenodd" clip-rule="evenodd" d="M61.8284 30.591C64.1009 30.591 65.6067 28.7834 65.6067 25.9699C65.6067 23.1643 64.0921 21.3479 61.7942 21.3479C60.6118 21.3097 59.5042 21.9247 58.9114 22.9484H58.8772V21.4426H57.0784V33.4914H58.9368V29.007H58.9798C59.5474 30.0372 60.6538 30.6525 61.8284 30.591ZM61.304 22.9318C62.7493 22.9318 63.6966 24.1369 63.6966 25.9699H63.6966C63.6966 27.8195 62.7493 29.0158 61.304 29.0158C59.8841 29.0158 58.929 27.7942 58.929 25.9699C58.929 24.1623 59.8841 22.9318 61.304 22.9318Z" fill="white"/>
<path fill-rule="evenodd" clip-rule="evenodd" d="M72.1927 27.0362C72.3304 28.2676 73.5267 29.0762 75.1614 29.0762C76.7278 29.0762 77.8548 28.2676 77.8548 27.1572C77.8548 26.1934 77.1751 25.6162 75.5657 25.2207L73.9563 24.833C71.6761 24.2822 70.6175 23.2158 70.6175 21.4854C70.6175 19.3428 72.4847 17.8711 75.136 17.8711C77.76 17.8711 79.5589 19.3428 79.6194 21.4854H77.7434C77.6311 20.2461 76.6067 19.4981 75.1096 19.4981C73.6126 19.4981 72.5881 20.2549 72.5881 21.3565C72.5881 22.2344 73.2424 22.751 74.843 23.1465L76.2112 23.4824C78.759 24.0849 79.8176 25.1084 79.8176 26.9248C79.8176 29.248 77.967 30.7031 75.0237 30.7031C72.2698 30.7031 70.4104 29.2822 70.2903 27.0361L72.1927 27.0362Z" fill="white"/>
<path fill-rule="evenodd" clip-rule="evenodd" d="M83.8284 19.2998V21.4424H85.55V22.9141H83.8284V27.9053C83.8284 28.6807 84.1731 29.042 84.9299 29.042C85.1343 29.0384 85.3384 29.0241 85.5413 28.999V30.4619C85.201 30.5255 84.8551 30.5543 84.509 30.5478C82.676 30.5478 81.9612 29.8593 81.9612 28.1035V22.9141H80.6448V21.4424H81.9612V19.2998H83.8284Z" fill="white"/>
<path fill-rule="evenodd" clip-rule="evenodd" d="M90.8411 21.3311C88.2248 21.3311 86.5471 23.1211 86.5471 25.9697C86.5471 28.8262 88.2082 30.6084 90.8411 30.6084C93.4749 30.6084 95.136 28.8262 95.136 25.9697C95.136 23.1211 93.4661 21.3311 90.8411 21.3311ZM90.8411 22.8623C92.3469 22.8623 93.2424 24.0156 93.2424 25.9697H93.2424C93.2424 27.9316 92.3469 29.0762 90.8411 29.0762C89.3352 29.0762 88.4407 27.9316 88.4407 25.9697C88.4407 24.0244 89.3352 22.8623 90.8411 22.8623Z" fill="white"/>
<path fill-rule="evenodd" clip-rule="evenodd" d="M96.6682 21.4425H98.4407V22.9835H98.4837C98.7309 21.9915 99.6398 21.3088 100.661 21.3478C100.876 21.347 101.089 21.3703 101.298 21.4171V23.1554C101.028 23.0728 100.746 23.0349 100.463 23.0431C99.9168 23.0209 99.388 23.2387 99.0157 23.6391C98.6434 24.0396 98.4647 24.5828 98.5266 25.1261V30.4962H96.6682L96.6682 21.4425Z" fill="white"/>
<path fill-rule="evenodd" clip-rule="evenodd" d="M105.968 30.6084C108.016 30.6084 109.616 29.4805 109.866 27.8369L108.102 27.8369C107.763 28.677 106.913 29.1948 106.011 29.1103C105.335 29.1352 104.68 28.8684 104.214 28.3778C103.748 27.8871 103.516 27.2199 103.575 26.5459V26.4336H109.97V25.7969C109.97 23.0518 108.395 21.3311 105.89 21.3311C103.343 21.3311 101.699 23.1729 101.699 26.0127C101.699 28.8437 103.334 30.6084 105.968 30.6084ZM108.111 25.1348L103.584 25.1348C103.583 24.5235 103.825 23.9369 104.258 23.5054C104.691 23.0739 105.279 22.8333 105.89 22.8369C106.496 22.8239 107.081 23.0644 107.502 23.5006C107.924 23.9368 108.144 24.5291 108.111 25.1348Z" fill="white"/>
<path fill-rule="evenodd" clip-rule="evenodd" d="M40.4137 9.54877C39.8698 8.97445 39.097 8.67429 38.3081 8.7309H36.1528V14.6977H38.3081C40.0855 14.6977 41.1157 13.602 41.1157 11.6957C41.2152 10.911 40.9575 10.1231 40.4137 9.54877ZM38.2046 13.8539H37.0796V9.57411H38.2046C38.7654 9.54299 39.3108 9.76412 39.6916 10.177C40.0724 10.5899 40.2487 11.1514 40.1724 11.7079C40.2547 12.2667 40.0809 12.8328 39.6991 13.2492C39.3174 13.6655 38.7684 13.8876 38.2046 13.8539Z" fill="white"/>
<path fill-rule="evenodd" clip-rule="evenodd" d="M43.1614 10.4285C42.4725 10.8561 42.0855 11.6372 42.1627 12.4443C42.084 13.2523 42.4706 14.0349 43.1602 14.4633C43.8497 14.8918 44.7227 14.8918 45.4122 14.4633C46.1018 14.0349 46.4884 13.2523 46.4097 12.4443C46.4869 11.6372 46.0999 10.8561 45.411 10.4285C44.7221 10.001 43.8503 10.001 43.1614 10.4285ZM44.2877 10.8974C45.0572 10.8974 45.4957 11.4682 45.4957 12.4443H45.4957C45.4957 13.4243 45.0572 13.9946 44.2877 13.9946C43.5152 13.9946 43.0807 13.4282 43.0807 12.4443C43.0807 11.4682 43.5152 10.8974 44.2877 10.8974Z" fill="white"/>
<path fill-rule="evenodd" clip-rule="evenodd" d="M52.0552 14.6978H51.1333L50.2026 11.3813H50.1323L49.2056 14.6978H48.2925L47.0513 10.1948H47.9526L48.7593 13.6308H48.8257L49.7515 10.1948H50.604L51.5298 13.6308H51.6001L52.4028 10.1948H53.2915L52.0552 14.6978Z" fill="white"/>
<path fill-rule="evenodd" clip-rule="evenodd" d="M54.3355 10.1949H55.1909V10.9102H55.2573C55.4883 10.3836 56.0279 10.0614 56.6011 10.108C57.0449 10.0746 57.4798 10.2449 57.783 10.5707C58.0862 10.8965 58.2248 11.3425 58.1597 11.7828V14.6978H57.271V12.0059C57.271 11.2823 56.9565 10.9224 56.2993 10.9224C55.9983 10.9084 55.7061 11.0266 55.4995 11.2459C55.2928 11.4652 55.1922 11.7639 55.2241 12.0635V14.6978H54.3354L54.3355 10.1949Z" fill="white"/>
<path fill-rule="evenodd" clip-rule="evenodd" d="M59.5757 8.43701H60.4644V14.6978H59.5757V8.43701Z" fill="white"/>
<path fill-rule="evenodd" clip-rule="evenodd" d="M62.6987 10.4286C62.0097 10.8561 61.6226 11.6372 61.6998 12.4444C61.6212 13.2524 62.0079 14.035 62.6975 14.4634C63.3871 14.8918 64.26 14.8918 64.9496 14.4634C65.6392 14.035 66.0259 13.2524 65.9473 12.4444C66.0245 11.6372 65.6374 10.8561 64.9484 10.4286C64.2594 10.001 63.3876 10.001 62.6987 10.4286ZM63.8248 10.8975C64.5943 10.8975 65.0328 11.4683 65.0328 12.4444H65.0328C65.0328 13.4244 64.5943 13.9947 63.8248 13.9947C63.0523 13.9947 62.6178 13.4283 62.6178 12.4444C62.6178 11.4683 63.0523 10.8975 63.8248 10.8975Z" fill="white"/>
<path fill-rule="evenodd" clip-rule="evenodd" d="M68.5576 12.0801C67.4863 12.1465 66.8828 12.6138 66.8828 13.4243C66.8843 13.8086 67.0483 14.1744 67.3343 14.4311C67.6203 14.6879 68.0015 14.8117 68.3838 14.7719C68.9291 14.7972 69.4458 14.5271 69.7363 14.0649H69.8066V14.6978H70.6621V11.6211C70.6621 10.6699 70.0254 10.1079 68.8965 10.1079C67.875 10.1079 67.1475 10.604 67.0566 11.3774H67.917C68.0156 11.0591 68.3594 10.877 68.8555 10.877C69.4629 10.877 69.7773 11.1455 69.7773 11.6211V12.0098L68.5576 12.0801ZM69.7773 12.6631V13.0395C69.7579 13.3265 69.6228 13.5933 69.403 13.7789C69.1832 13.9645 68.8975 14.0529 68.6114 14.0239C68.1279 14.0239 67.7764 13.7881 67.7764 13.3828C67.7764 12.9858 68.0576 12.7749 68.6777 12.7334L69.7773 12.6631Z" fill="white"/>
<path fill-rule="evenodd" clip-rule="evenodd" d="M73.6992 10.1201C72.5615 10.1201 71.8301 11.0215 71.8301 12.4444C71.8301 13.8706 72.5537 14.772 73.6992 14.772C74.28 14.7934 74.8247 14.4907 75.1133 13.9863H75.1836V14.6978H76.0352V8.43701H75.1465V10.9101H75.0801C74.8117 10.4015 74.2737 10.0937 73.6992 10.1201ZM73.9512 13.9741C73.1983 13.9741 72.7481 13.3994 72.7481 12.4444H72.748C72.748 11.4971 73.2031 10.9185 73.9512 10.9185C74.6953 10.9185 75.1631 11.5098 75.1631 12.4483C75.1631 13.3911 74.7002 13.9741 73.9512 13.9741Z" fill="white"/>
<path fill-rule="evenodd" clip-rule="evenodd" d="M80.7107 10.4285C80.0218 10.8561 79.6348 11.6372 79.712 12.4443C79.6333 13.2523 80.02 14.0349 80.7095 14.4633C81.3991 14.8918 82.272 14.8918 82.9615 14.4633C83.6511 14.0349 84.0377 13.2523 83.9591 12.4443C84.0363 11.6372 83.6492 10.8561 82.9603 10.4285C82.2714 10.001 81.3997 10.001 80.7107 10.4285ZM81.837 10.8974C82.6065 10.8974 83.045 11.4682 83.045 12.4443C83.045 13.4243 82.6065 13.9946 81.837 13.9946C81.0646 13.9946 80.63 13.4282 80.63 12.4443C80.63 11.4682 81.0645 10.8974 81.837 10.8974Z" fill="white"/>
<path fill-rule="evenodd" clip-rule="evenodd" d="M85.1514 10.1949H86.0068V10.9102H86.0732C86.3042 10.3836 86.8438 10.0614 87.417 10.108C87.8608 10.0746 88.2957 10.2449 88.5989 10.5707C88.9021 10.8965 89.0407 11.3425 88.9756 11.7828V14.6978H88.0869V12.0059C88.0869 11.2823 87.7725 10.9224 87.1152 10.9224C86.8142 10.9084 86.5221 11.0266 86.3154 11.2459C86.1087 11.4652 86.0082 11.7639 86.04 12.0635V14.6978H85.1514V10.1949Z" fill="white"/>
<path fill-rule="evenodd" clip-rule="evenodd" d="M93.9971 9.07373V10.2153H94.9727V10.9639H93.9971V13.2793C93.9971 13.751 94.1914 13.9575 94.6338 13.9575C94.747 13.9572 94.8602 13.9503 94.9727 13.937V14.6772C94.8131 14.7058 94.6514 14.721 94.4893 14.7227C93.501 14.7227 93.1074 14.375 93.1074 13.5068V10.9638H92.3926V10.2153H93.1074V9.07373H93.9971Z" fill="white"/>
<path fill-rule="evenodd" clip-rule="evenodd" d="M96.1865 8.43701H97.0674V10.9185H97.1377C97.3797 10.3872 97.9288 10.0646 98.5107 10.1118C98.952 10.0878 99.381 10.2618 99.6809 10.5864C99.9808 10.9111 100.12 11.3525 100.061 11.7905V14.6978H99.1719V12.0098C99.1719 11.2905 98.8369 10.9263 98.209 10.9263C97.8999 10.9009 97.5953 11.0133 97.3767 11.2334C97.1581 11.4535 97.0478 11.7589 97.0752 12.0679V14.6977H96.1866L96.1865 8.43701Z" fill="white"/>
<path fill-rule="evenodd" clip-rule="evenodd" d="M103.292 14.7847C104.172 14.8802 104.994 14.3314 105.243 13.482L104.388 13.482C104.174 13.8644 103.751 14.0801 103.316 14.0279C102.981 14.0316 102.66 13.8937 102.431 13.6481C102.203 13.4025 102.089 13.072 102.117 12.7379V12.6881H105.297V12.378C105.297 10.964 104.541 10.108 103.288 10.108C102.686 10.1029 102.111 10.3592 101.713 10.8105C101.315 11.2619 101.132 11.8639 101.212 12.4605C101.13 13.0555 101.313 13.6566 101.714 14.1041C102.114 14.5517 102.691 14.8006 103.292 14.7847ZM104.392 12.0308H102.117C102.113 11.7203 102.235 11.4214 102.454 11.2017C102.674 10.9821 102.973 10.8604 103.283 10.8643C103.589 10.8573 103.885 10.98 104.096 11.2021C104.307 11.4243 104.414 11.7252 104.392 12.0308Z" fill="white"/>
</svg>
