<?xml version="1.0" encoding="UTF-8"?>
<svg width="124px" height="38px" viewBox="0 0 124 38" version="1.1" xmlns="http://www.w3.org/2000/svg" xmlns:xlink="http://www.w3.org/1999/xlink">
    <title>Google Play</title>
    <g id="Symbols" stroke="none" stroke-width="1" fill="none" fill-rule="evenodd">
        <g id="Footer/Desktop" transform="translate(-1152.000000, -92.000000)">
            <g id="Buttons" transform="translate(1152.000000, 44.000000)">
                <g id="Google-Play" transform="translate(0.000000, 48.000000)">
                    <rect id="Rectangle" fill="#FFFFFF" fill-rule="nonzero" x="0" y="0" width="123.29236" height="38" rx="4"></rect>
                    <g id="Group" transform="translate(10.148557, 7.324340)" fill="#282D2D">
                        <path d="M0.515553552,0.806339837 L11.014532,11.6917887 L0.565886782,22.672195 C0.260970741,22.4713903 0.0975544095,22.0356258 0.0948044152,21.472729 C0.0895544259,20.3938779 0.00638792994,3.26871426 2.70393641e-05,1.98386086 C-0.00277871791,1.36758664 0.213054172,0.991552105 0.515553552,0.806339837 Z M14.4768582,8.05354328 L1.70996777,0.821189818 C1.57363471,0.743722415 1.4188017,0.696697474 1.26446868,0.67566 L11.4489478,11.2353993 L14.4768582,8.05354328 Z M15.0441904,14.9630746 L11.8859469,11.6888187 L15.0410237,8.37331288 L19.3858482,10.8342023 C20.4561793,11.440164 19.9086804,12.1983381 19.3858482,12.4956677 L15.0441904,14.9630746 Z M1.43138501,22.67566 C1.52038482,22.6409275 1.61338463,22.5965426 1.7098011,22.5418452 L14.4793582,15.2840817 L11.4518644,12.1452907 L1.43138501,22.67566 Z" id="Shape"></path>
                        <path d="M58.2698,25.39756 C57.793,25.01706 57.4116,24.35116 57.2209,23.97066 L58.7465,23.30486 C58.8419,23.49506 59.0326,23.78046 59.2233,24.06586 C59.6046,24.44626 60.1767,24.82676 60.7488,24.82676 C61.3209,24.82676 61.9884,24.54146 62.3698,24.06586 C62.6558,23.59016 62.8465,23.11456 62.8465,22.44876 L62.8465,21.87806 C61.7023,23.30486 59.3186,23.11456 57.9837,21.59266 C56.5535,20.07066 56.5535,17.50236 57.9837,15.98046 C59.4139,14.55366 61.5116,14.36336 62.7512,15.69506 L62.7512,15.02926 L64.3721,15.02926 L64.3721,22.16336 C64.3721,23.97066 63.7046,25.01706 62.8465,25.68286 C62.2744,26.15846 61.4163,26.34876 60.6535,26.34876 C59.7953,26.25366 58.9372,25.96826 58.2698,25.39756 Z M98.221,25.77806 L99.842,21.97316 L96.981,15.40976 L98.602,15.40976 L100.605,20.07076 L102.607,15.40976 L104.228,15.40976 L99.842,25.77806 L98.221,25.77806 Z M90.498,22.16336 C90.021,21.68776 89.8302,21.02196 89.8302,20.35606 C89.8302,19.78536 90.021,19.21456 90.402,18.83416 C91.07,18.16826 92.023,17.88286 93.072,17.88286 C93.74,17.88286 94.312,17.97806 94.788,18.26336 C94.788,17.12196 93.835,16.64636 93.072,16.64636 C92.405,16.64636 91.737,17.02676 91.451,17.69266 L90.021,17.12196 C90.307,16.45606 91.07,15.21946 92.977,15.21946 C93.93,15.21946 94.884,15.50486 95.456,16.17066 C96.028,16.83656 96.219,17.59756 96.219,18.64386 L96.219,22.63896 L94.598,22.63896 L94.598,21.97316 C94.407,22.25846 94.026,22.44876 93.74,22.63896 C93.358,22.82926 92.881,22.92436 92.405,22.92436 C91.833,22.82926 90.974,22.63896 90.498,22.16336 Z M39.6768,18.73906 C39.6768,16.83656 41.107,14.74386 43.6814,14.74386 C46.1605,14.74386 47.6861,16.83656 47.6861,18.73906 C47.6861,20.64146 46.2558,22.73416 43.6814,22.73416 C41.107,22.73416 39.6768,20.64146 39.6768,18.73906 Z M48.2581,18.73906 C48.2581,16.83656 49.6884,14.74386 52.2628,14.74386 C54.7419,14.74386 56.2675,16.83656 56.2675,18.73906 C56.2675,20.64146 54.8372,22.73416 52.2628,22.73416 C49.7837,22.73416 48.2581,20.64146 48.2581,18.73906 Z M28.9023,20.83176 C26.5186,18.45366 26.614,14.55366 28.9977,12.08056 C30.2372,10.84396 31.7628,10.27316 33.3837,10.27316 C34.9093,10.27316 36.4349,10.84396 37.5791,11.98536 L36.4349,13.22196 C34.7186,11.50976 31.9535,11.60486 30.3326,13.31706 C28.6163,15.12446 28.6163,17.88296 30.3326,19.69026 C32.0488,21.49756 34.9093,21.59266 36.6256,19.78536 C37.1977,19.21466 37.3884,18.45366 37.4837,17.69266 L33.4791,17.69266 L33.4791,15.98056 L39.1047,15.98056 C39.2,16.36096 39.2,16.83656 39.2,17.31226 C39.2,18.73906 38.6279,20.16586 37.6744,21.11706 C36.6256,22.16346 35.1,22.73416 33.5744,22.73416 C31.8581,22.63906 30.1419,22.06836 28.9023,20.83176 Z M69.2349,21.49756 C67.8046,19.97566 67.8046,17.40736 69.2349,15.79026 C70.6651,14.26836 73.0488,14.26836 74.3837,15.79026 C74.8605,16.26586 75.1465,16.93176 75.4325,17.59756 L70.1884,19.78536 C70.4744,20.45126 71.1419,21.02196 72.0953,21.02196 C72.9535,21.02196 73.5256,20.73656 74.0977,19.88056 L75.5279,20.83176 C75.3372,21.02196 75.1465,21.21226 75.0512,21.40246 C73.4302,23.01956 70.6651,23.01956 69.2349,21.49756 Z M79.1512,22.63906 L79.1512,12.08056 L82.5837,12.08056 C84.5861,12.08056 86.207,13.50736 86.207,15.21956 C86.207,16.93176 84.7768,18.35866 82.9651,18.35866 L80.8675,18.35866 L80.8675,22.54396 L79.1512,22.54396 L79.1512,22.63906 Z M87.1605,22.63906 L87.1605,12.08056 L88.7814,12.08056 L88.7814,22.63906 L87.1605,22.63906 Z M65.6116,22.44876 L65.6116,10.65366 L67.3279,10.65366 L67.3279,22.44876 L65.6116,22.44876 Z M94.693,19.49996 C94.312,19.21466 93.74,19.11946 93.167,19.11946 C92.023,19.11946 91.356,19.69026 91.356,20.35606 C91.356,21.02196 92.023,21.40246 92.691,21.40246 C93.644,21.40246 94.693,20.64146 94.693,19.49996 Z M45.8744,18.73906 C45.8744,17.59756 45.1116,16.36096 43.6814,16.36096 C42.2512,16.36096 41.4884,17.59756 41.4884,18.73906 C41.4884,19.88046 42.2512,21.11706 43.6814,21.11706 C45.0163,21.11706 45.8744,19.88046 45.8744,18.73906 Z M54.4558,18.73906 C54.4558,17.59756 53.693,16.36096 52.2628,16.36096 C50.8326,16.36096 50.0698,17.59756 50.0698,18.73906 C50.0698,19.88046 50.8326,21.11706 52.2628,21.11706 C53.693,21.11706 54.4558,19.88046 54.4558,18.73906 Z M62.9419,19.40486 C62.9419,19.30976 62.9419,19.21466 63.0372,19.11956 C63.0372,19.02436 63.0372,18.83416 63.0372,18.73906 C63.0372,18.64396 63.0372,18.45366 63.0372,18.35856 L63.0372,18.26346 C63.0372,18.16826 62.9419,17.97806 62.9419,17.88296 C62.6558,16.93176 61.7977,16.26586 60.9395,16.26586 C59.7953,16.26586 58.8419,17.40736 58.8419,18.64396 C58.8419,19.97566 59.7953,21.02196 61.0349,21.02196 C61.7977,21.11706 62.5605,20.45126 62.9419,19.40486 Z M69.9023,18.54886 L73.4302,17.02686 C73.0488,16.36106 72.4767,16.17076 72,16.17076 C70.5698,16.26586 69.7116,17.78786 69.9023,18.54886 Z M84.4907,15.31466 C84.4907,14.36346 83.7279,13.69766 82.6791,13.69766 L80.7721,13.69766 L80.7721,17.02686 L82.7744,17.02686 C83.7279,17.02686 84.4907,16.26596 84.4907,15.31466 Z" id="Shape"></path>
                        <path d="M30.3326,-2.12274642e-13 C31.3814,-2.12274642e-13 32.0488,0.47561 32.5256,1.14146 L31.7628,1.61707 C31.4767,1.23659 31,0.95122 30.3326,0.95122 C29.2837,0.95122 28.5209,1.7122 28.5209,2.85366 C28.5209,3.99516 29.2837,4.75606 30.3326,4.75606 C30.9047,4.75606 31.3814,4.47076 31.5721,4.28046 L31.5721,3.42436 L30.0465,3.42436 L30.0465,2.56829 L32.6209,2.56829 L32.6209,4.56586 C32.1442,5.13656 31.3814,5.51706 30.4279,5.51706 C28.807,5.51706 27.5674,4.37566 27.5674,2.75856 C27.5674,1.04634 28.807,-2.12274642e-13 30.3326,-2.12274642e-13 Z M37.3884,0.09522 L37.3884,0.95131 L34.6232,0.95131 L34.6232,2.28302 L37.293,2.28302 L37.293,3.13916 L34.6232,3.13916 L34.6232,4.66106 L37.3884,4.66106 L37.3884,5.51716 L33.7651,5.42206 L33.7651,0.09522 L37.3884,0.09522 Z M57.793,-2.12274642e-13 C59.4139,-2.12274642e-13 60.5581,1.14148 60.5581,2.75856 C60.5581,4.37566 59.4139,5.51706 57.793,5.51706 C56.1721,5.51706 55.0279,4.28056 55.0279,2.75856 C55.0279,1.14148 56.1721,-2.12274642e-13 57.793,-2.12274642e-13 Z M42.6325,0.09522 L42.6325,0.95131 L41.0116,0.95131 L41.0116,5.42206 L40.0581,5.42206 L40.0581,0.95131 L38.4372,0.95131 L38.4372,0.09522 L42.6325,0.09522 Z M46.8279,0.09522 L46.8279,5.42206 L45.8744,5.42206 L45.8744,0.09522 L46.8279,0.09522 Z M51.9768,0.09522 L51.9768,0.95131 L50.3558,0.95131 L50.3558,5.42206 L49.4023,5.42206 L49.4023,0.95131 L47.7814,0.95131 L47.7814,0.09522 L51.9768,0.09522 Z M62.5605,0.09522 L65.3256,3.80496 L65.3256,0.09522 L66.2791,0.09522 L66.2791,5.42206 L65.3256,5.42206 L62.5605,1.61717 L62.5605,5.42206 L61.607,5.42206 L61.607,0.09522 L62.5605,0.09522 Z M57.6977,0.85608 C56.6488,0.85608 55.886,1.71216 55.886,2.75856 C55.886,3.90006 56.5535,4.66106 57.6977,4.66106 C58.8419,4.66106 59.5093,3.80486 59.5093,2.75856 C59.5093,1.61707 58.8419,0.85608 57.6977,0.85608 Z" id="Combined-Shape" fill-rule="nonzero"></path>
                    </g>
                </g>
            </g>
        </g>
    </g>
</svg>