<?xml version="1.0" encoding="UTF-8"?>
<svg width="124px" height="38px" viewBox="0 0 124 38" version="1.1" xmlns="http://www.w3.org/2000/svg" xmlns:xlink="http://www.w3.org/1999/xlink">
    <title>App Store</title>
    <g id="Symbols" stroke="none" stroke-width="1" fill="none" fill-rule="evenodd">
        <g id="Footer/Desktop" transform="translate(-1152.000000, -44.000000)">
            <g id="App-Store" transform="translate(1152.000000, 44.000000)">
                <rect id="Rectangle" fill="#FFFFFF" fill-rule="nonzero" x="0" y="0" width="123.29236" height="38" rx="4"></rect>
                <g id="Group" transform="translate(9.860426, 5.352050)" fill="#282D2D">
                    <path d="M29.1151759,1.16455 L31.3018759,1.16455 C33.1205759,1.16455 34.1905759,2.28113 34.1905759,4.20555 C34.1905759,6.13415 33.1205759,7.26765 31.3018759,7.26765 L29.1151759,7.26765 L29.1151759,1.16455 Z M30.0626759,1.98084 L30.0626759,6.44715 L31.2130759,6.44715 C32.5072759,6.44715 33.2262759,5.65625 33.2262759,4.214 C33.2262759,2.77598 32.5072759,1.98084 31.2130759,1.98084 L30.0626759,1.98084 Z M37.5651759,7.32265 C36.2370759,7.32265 35.3911759,6.41755 35.3911759,4.97105 C35.3911759,3.5288 36.2412759,2.61524 37.5651759,2.61524 C38.8889759,2.61524 39.7348759,3.52457 39.7348759,4.97105 C39.7348759,6.41755 38.8931759,7.32265 37.5651759,7.32265 Z M37.5651759,6.56135 C38.3433759,6.56135 38.8043759,5.97345 38.8043759,4.97115 C38.8043759,3.96871 38.3433759,3.37659 37.5651759,3.37659 C36.7868759,3.37659 36.3216759,3.97294 36.3216759,4.97115 C36.3216759,5.97345 36.7868759,6.56135 37.5651759,6.56135 Z M47.0850759,2.67444 L45.8204759,7.26765 L44.8730759,7.26765 L43.8960759,3.80794 L43.8748759,3.80794 L42.9063759,7.26765 L41.9631759,7.26765 L40.6943759,2.67444 L41.6078759,2.67444 L42.4622759,6.31175 L42.4791759,6.31175 L43.4519759,2.67444 L44.3316759,2.67444 L45.3086759,6.31175 L45.3256759,6.31175 L46.1799759,2.67444 L47.0850759,2.67444 Z M48.2645759,7.26775 L48.2645759,2.67453 L49.1400759,2.67453 L49.1400759,3.44853 L49.1569759,3.44853 C49.4360759,2.90716 49.8970759,2.62378 50.6076759,2.62378 C51.6227759,2.62378 52.2021759,3.26666 52.2021759,4.32403 L52.2021759,7.26775 L51.2843759,7.26775 L51.2843759,4.49744 C51.2843759,3.79958 50.9629759,3.41046 50.2904759,3.41046 C49.5967759,3.41046 49.1823759,3.89262 49.1823759,4.61586 L49.1823759,7.26775 L48.2645759,7.26775 Z M53.7580759,7.26775 L53.7580759,0.88965 L54.6758759,0.88965 L54.6758759,7.26775 L53.7580759,7.26775 Z M58.2195759,7.32265 C56.8914759,7.32265 56.0455759,6.41755 56.0455759,4.97105 C56.0455759,3.5288 56.8957759,2.61524 58.2195759,2.61524 C59.5433759,2.61524 60.3892759,3.52457 60.3892759,4.97105 C60.3892759,6.41755 59.5475759,7.32265 58.2195759,7.32265 Z M58.2195759,6.56135 C58.9977759,6.56135 59.4587759,5.97345 59.4587759,4.97115 C59.4587759,3.96871 58.9977759,3.37659 58.2195759,3.37659 C57.4413759,3.37659 56.9760759,3.97294 56.9760759,4.97115 C56.9760759,5.97345 57.4413759,6.56135 58.2195759,6.56135 Z M63.3196759,6.58255 C64.0006759,6.58255 64.5166759,6.14695 64.5166759,5.54215 L64.5166759,5.18265 L63.4000759,5.25875 C62.7740759,5.29685 62.4484759,5.52945 62.4484759,5.93545 C62.4484759,6.32885 62.7909759,6.58255 63.3196759,6.58255 Z M63.0743759,7.31415 C62.1565759,7.31415 61.5221759,6.77285 61.5221759,5.95225 C61.5221759,5.14865 62.1439759,4.68345 63.2774759,4.61155 L64.5166759,4.53965 L64.5166759,4.18437 C64.5166759,3.65992 64.1655759,3.37231 63.5523759,3.37231 C63.0532759,3.37231 62.6895759,3.63031 62.6091759,4.02788 L61.7505759,4.02788 C61.7759759,3.21582 62.5457759,2.61524 63.5776759,2.61524 C64.6985759,2.61524 65.4217759,3.20736 65.4217759,4.1167 L65.4217759,7.26765 L64.5462759,7.26765 L64.5462759,6.50215 L64.5251759,6.50215 C64.2713759,7.00125 63.7003759,7.31415 63.0743759,7.31415 Z M68.6736759,7.31425 C67.5232759,7.31425 66.7365759,6.38795 66.7365759,4.96685 C66.7365759,3.55422 67.5232759,2.62796 68.6651759,2.62796 C69.3249759,2.62796 69.8494759,2.92826 70.1116759,3.4358 L70.1327759,3.4358 L70.1327759,0.88965 L71.0463759,0.88965 L71.0463759,7.26775 L70.1581759,7.26775 L70.1581759,6.48945 L70.1412759,6.48945 C69.8705759,7.00975 69.3461759,7.31425 68.6736759,7.31425 Z M68.9062759,3.40613 C68.1660759,3.40613 67.6754759,4.02363 67.6754759,4.97105 C67.6754759,5.92265 68.1618759,6.53595 68.9062759,6.53595 C69.6421759,6.53595 70.1370759,5.90995 70.1370759,4.97105 C70.1370759,4.03632 69.6421759,3.40613 68.9062759,3.40613 Z M77.1821759,7.32265 C75.8541759,7.32265 75.0082759,6.41755 75.0082759,4.97105 C75.0082759,3.5288 75.8583759,2.61524 77.1821759,2.61524 C78.5060759,2.61524 79.3518759,3.52457 79.3518759,4.97105 C79.3518759,6.41755 78.5102759,7.32265 77.1821759,7.32265 Z M77.1821759,6.56135 C77.9603759,6.56135 78.4214759,5.97345 78.4214759,4.97115 C78.4214759,3.96871 77.9603759,3.37659 77.1821759,3.37659 C76.4039759,3.37659 75.9387759,3.97294 75.9387759,4.97115 C75.9387759,5.97345 76.4039759,6.56135 77.1821759,6.56135 Z M80.6878759,7.26775 L80.6878759,2.67453 L81.5633759,2.67453 L81.5633759,3.44853 L81.5802759,3.44853 C81.8593759,2.90716 82.3204759,2.62378 83.0309759,2.62378 C84.0460759,2.62378 84.6254759,3.26666 84.6254759,4.32403 L84.6254759,7.26775 L83.7076759,7.26775 L83.7076759,4.49744 C83.7076759,3.79958 83.3862759,3.41046 82.7137759,3.41046 C82.0201759,3.41046 81.6056759,3.89262 81.6056759,4.61586 L81.6056759,7.26775 L80.6878759,7.26775 Z M89.0145759,1.64246 L89.9280759,1.64246 L89.9280759,2.67445 L90.8080759,2.67445 L90.8080759,3.39769 L89.9280759,3.39769 L89.9280759,5.96495 C89.9280759,6.36255 90.1057759,6.54865 90.4910759,6.54865 C90.5880759,6.54865 90.7440759,6.53595 90.8040759,6.52755 L90.8040759,7.25075 C90.7020759,7.27615 90.4860759,7.29725 90.2880759,7.29725 C89.3697759,7.29725 89.0145759,6.94625 89.0145759,6.05805 L89.0145759,3.39769 L88.3800759,3.39769 L88.3800759,2.67445 L89.0145759,2.67445 L89.0145759,1.64246 Z M92.2200759,7.26775 L92.2200759,0.88965 L93.1290759,0.88965 L93.1290759,3.44848 L93.1500759,3.44848 C93.4250759,2.90711 93.8990759,2.62374 94.6010759,2.62374 C95.6120759,2.62374 96.2170759,3.29622 96.2170759,4.33244 L96.2170759,7.26775 L95.2990759,7.26775 L95.2990759,4.51008 C95.2990759,3.82491 94.9560759,3.41042 94.2840759,3.41042 C93.5690759,3.41042 93.1380759,3.90104 93.1380759,4.63697 L93.1380759,7.26775 L92.2200759,7.26775 Z M99.6460759,3.36389 C98.9860759,3.36389 98.5080759,3.84605 98.4580759,4.55238 L100.788076,4.55238 C100.767076,3.83759 100.314076,3.36389 99.6460759,3.36389 Z M100.784076,5.92265 L101.659076,5.92265 C101.528076,6.74745 100.720076,7.32265 99.6880759,7.32265 C98.3560759,7.32265 97.5270759,6.42595 97.5270759,4.98795 C97.5270759,3.54995 98.3650759,2.61524 99.6500759,2.61524 C100.911076,2.61524 101.706076,3.49074 101.706076,4.88225 L101.706076,5.20365 L98.4530759,5.20365 L98.4530759,5.25865 C98.4530759,6.05385 98.9530759,6.57825 99.7050759,6.57825 C100.238076,6.57825 100.657076,6.32445 100.784076,5.92265 Z" id="Shape"></path>
                    <path d="M36.0589759,24.64805 L34.9795759,21.45905 L30.4822759,21.45905 L29.4028759,24.64805 L27.4976759,24.64805 L31.7578759,12.84865 L33.7366759,12.84865 L37.9968759,24.64805 L36.0589759,24.64805 Z M32.7063759,14.81105 L30.9483759,19.98705 L34.5134759,19.98705 L32.7554759,14.81105 L32.7063759,14.81105 Z M43.8962759,15.67785 C46.1612759,15.67785 47.6495759,17.45225 47.6495759,20.20795 C47.6495759,22.95535 46.1694759,24.73795 43.9371759,24.73795 C42.6615759,24.73795 41.6557759,24.17375 41.1242759,23.19255 L41.0915759,23.19255 L41.0915759,27.59175 L39.3171759,27.59175 L39.3171759,15.76785 L41.0261759,15.76785 L41.0261759,17.23965 L41.0670759,17.23965 C41.5658759,16.28295 42.6615759,15.67785 43.8962759,15.67785 Z M43.4465759,23.23335 C44.8856759,23.23335 45.8341759,22.04765 45.8341759,20.20785 C45.8341759,18.37625 44.8856759,17.18235 43.4465759,17.18235 C42.0400759,17.18235 41.0833759,18.40075 41.0751759,20.20785 C41.0833759,22.02315 42.0318759,23.23335 43.4465759,23.23335 Z M53.8432759,15.67785 C56.1082759,15.67785 57.5964759,17.45225 57.5964759,20.20795 C57.5964759,22.95535 56.1164759,24.73795 53.8841759,24.73795 C52.6085759,24.73795 51.6027759,24.17375 51.0712759,23.19255 L51.0385759,23.19255 L51.0385759,27.59175 L49.2641759,27.59175 L49.2641759,15.76785 L50.9731759,15.76785 L50.9731759,17.23965 L51.0139759,17.23965 C51.5127759,16.28295 52.6085759,15.67785 53.8432759,15.67785 Z M53.3934759,23.23335 C54.8326759,23.23335 55.7811759,22.04765 55.7811759,20.20785 C55.7811759,18.37625 54.8326759,17.18235 53.3934759,17.18235 C51.9870759,17.18235 51.0303759,18.40075 51.0221759,20.20785 C51.0303759,22.02315 51.9788759,23.23335 53.3934759,23.23335 Z M62.9272759,21.36085 L64.7343759,21.36085 C64.8651759,22.53015 66.0017759,23.29875 67.5553759,23.29875 C69.0435759,23.29875 70.1147759,22.53015 70.1147759,21.47535 C70.1147759,20.55945 69.4687759,20.01165 67.9396759,19.63545 L66.4105759,19.26755 C64.2436759,18.74425 63.2379759,17.73025 63.2379759,16.08665 C63.2379759,14.05065 65.0123759,12.65235 67.5308759,12.65235 C70.0248759,12.65235 71.7338759,14.05065 71.7910759,16.08665 L70.0084759,16.08665 C69.9021759,14.90915 68.9291759,14.19775 67.5063759,14.19775 C66.0835759,14.19775 65.1104759,14.91735 65.1104759,15.96405 C65.1104759,16.79805 65.7319759,17.28865 67.2528759,17.66485 L68.5529759,17.98375 C70.9733759,18.55615 71.9791759,19.52915 71.9791759,21.25455 C71.9791759,23.46235 70.2210759,24.84425 67.4245759,24.84425 C64.8079759,24.84425 63.0416759,23.49505 62.9272759,21.36085 Z M74.1743759,13.77255 L75.9405759,13.77255 L75.9405759,15.76775 L77.6413759,15.76775 L77.6413759,17.16605 L75.9405759,17.16605 L75.9405759,22.12945 C75.9405759,22.89815 76.2839759,23.25785 77.0280759,23.25785 C77.2161759,23.25785 77.5187759,23.23335 77.6331759,23.21705 L77.6331759,24.61525 C77.4369759,24.66435 77.0199759,24.70525 76.6355759,24.70525 C74.8611759,24.70525 74.1743759,24.02655 74.1743759,22.30935 L74.1743759,17.16605 L72.9477759,17.16605 L72.9477759,15.76775 L74.1743759,15.76775 L74.1743759,13.77255 Z M82.9356759,24.75435 C80.3680759,24.75435 78.7326759,23.00445 78.7326759,20.20795 C78.7326759,17.41955 80.3762759,15.65335 82.9356759,15.65335 C85.4950759,15.65335 87.1304759,17.41135 87.1304759,20.20795 C87.1304759,23.00445 85.5032759,24.75435 82.9356759,24.75435 Z M82.9356759,23.28235 C84.4401759,23.28235 85.3314759,22.14575 85.3314759,20.20785 C85.3314759,18.26995 84.4401759,17.12515 82.9356759,17.12515 C81.4310759,17.12515 80.5315759,18.27805 80.5315759,20.20785 C80.5315759,22.14575 81.4310759,23.28235 82.9356759,23.28235 Z M88.7532759,24.64805 L88.7532759,15.76785 L90.4460759,15.76785 L90.4460759,17.26415 L90.4790759,17.26415 C90.7570759,16.27475 91.5740759,15.67785 92.6210759,15.67785 C92.8830759,15.67785 93.1030759,15.70235 93.2420759,15.73505 L93.2420759,17.39505 C93.0950759,17.33775 92.7840759,17.28875 92.4330759,17.28875 C91.2640759,17.28875 90.5280759,18.09825 90.5280759,19.34935 L90.5280759,24.64805 L88.7532759,24.64805 Z M98.2750759,17.10055 C96.9990759,17.10055 96.0750759,18.03275 95.9770759,19.39835 L100.483076,19.39835 C100.442076,18.01645 99.5670759,17.10055 98.2750759,17.10055 Z M100.475076,22.04775 L102.167076,22.04775 C101.914076,23.64225 100.352076,24.75435 98.3570759,24.75435 C95.7810759,24.75435 94.1780759,23.02075 94.1780759,20.24065 C94.1780759,17.46045 95.7970759,15.65335 98.2830759,15.65335 C100.720076,15.65335 102.257076,17.34595 102.257076,20.03615 L102.257076,20.65765 L95.9690759,20.65765 L95.9690759,20.76395 C95.9690759,22.30125 96.9340759,23.31515 98.3890759,23.31515 C99.4200759,23.31515 100.229076,22.82455 100.475076,22.04775 Z" id="Shape"></path>
                    <path d="M14.7241759,0 C13.5027759,0.05103 12.0227759,0.81116 11.1468759,1.83301 C10.3594759,2.74048 9.67217588,4.18884 9.85747588,5.57755 C11.2210759,5.68385 12.6105759,4.88745 13.4594759,3.86499 C14.3066759,2.84082 14.8801759,1.41943 14.7241759,0 Z M14.3788759,24.16785 C16.0338759,24.13705 17.0819759,22.67085 18.0952759,21.19565 C19.2056759,19.57975 19.6959759,18.01295 19.7690759,17.77925 L19.7774759,17.75295 C19.7403759,17.73635 16.5496759,16.51965 16.5185759,12.85925 C16.4886759,9.89845 18.8585759,8.42515 19.1201759,8.26255 L19.1397759,8.25035 C17.7127759,6.17165 15.4908759,5.88655 14.6991759,5.85405 C13.5427759,5.73755 12.4208759,6.17785 11.5042759,6.53775 C10.9216759,6.76635 10.4219759,6.96245 10.0490759,6.96245 C9.63397588,6.96245 9.12067588,6.75955 8.54457588,6.53175 C7.79057588,6.23365 6.92907588,5.89305 6.03957588,5.90935 C3.97947588,5.94005 2.07837588,7.10365 1.01737588,8.94285 C-1.12507412,12.64625 0.467975879,18.13375 2.55517588,21.13655 C3.57687588,22.60525 4.79167588,24.25815 6.38937588,24.19865 C7.10267588,24.17005 7.61037588,23.95475 8.13537588,23.73205 C8.74217588,23.47465 9.37217588,23.20735 10.3695759,23.20735 C11.3195759,23.20735 11.9203759,23.46635 12.4982759,23.71535 C13.0509759,23.95365 13.5826759,24.18285 14.3788759,24.16785 Z" id="Shape"></path>
                </g>
            </g>
        </g>
    </g>
</svg>