<svg xmlns="http://www.w3.org/2000/svg" xml:space="preserve" viewBox="0 0 512 512"><path d="M0 0h512v512H0z" style="fill:#f0f0f0"/><path d="M0 64h512v64H0z" style="fill:#d80027"/><path d="M0 128h512v64H0z" style="fill:#0052b4"/><path d="M0 256h512v64H0z" style="fill:#d80027"/><path d="M0 320h512v64H0z" style="fill:#0052b4"/><path d="M0 448h512v64H0z" style="fill:#d80027"/><path d="M0 0h256v256H0z" style="fill:#f0f0f0"/><path d="M0 152.001h104.001V256h48V152.001H256v-48H152.001V0h-48v104.001H0z" style="fill:#d80027"/><path d="m203.46 166.957 52.54 52.54v-52.54zM166.957 166.957 256 256v-25.18l-63.863-63.863zM232.282 256l-65.325-65.331V256z" style="fill:#0052b4"/><path d="M166.957 166.957 256 256v-25.18l-63.863-63.863z" style="fill:#f0f0f0"/><path d="M166.957 166.957 256 256v-25.18l-63.863-63.863z" style="fill:#d80027"/><path d="M40.151 166.957 0 207.107v-40.15zM89.041 178.28v77.719H11.33z" style="fill:#0052b4"/><path d="M63.862 166.959 0 230.821V256l89.041-89.041z" style="fill:#d80027"/><path d="M52.54 89.043 0 36.503v52.54zM89.043 89.043 0 0v25.18l63.863 63.863zM23.718 0l65.325 65.331V0z" style="fill:#0052b4"/><path d="M89.043 89.043 0 0v25.18l63.863 63.863z" style="fill:#f0f0f0"/><path d="M89.043 89.043 0 0v25.18l63.863 63.863z" style="fill:#d80027"/><path d="M215.849 89.043 256 48.893v40.15zM166.959 77.72V.002h77.711z" style="fill:#0052b4"/><path d="M192.138 89.041 256 25.179V0l-89.041 89.041z" style="fill:#d80027"/></svg>