<svg version="1.1" id="Layer_1" xmlns="http://www.w3.org/2000/svg" xmlns:xlink="http://www.w3.org/1999/xlink" x="0px" y="0px"
viewBox="0 0 699.4 699.2" style="enable-background:new 0 0 699.4 699.2;" xml:space="preserve">
<path d="M469.7,497.6c-75.9,63.8-161.8,83.2-256.6,61.2C144.9,543,92.7,502.4,51.6,447c-77.1-104-70.1-268.3,36.9-369.9
c102.1-97,262.4-99.9,362.3-23.1c65,50,106.4,114,114.9,197.1c8.4,82-13.7,154.6-68.1,218.4c6.6,0,11.8,0.1,17.1,0
c5.3-0.2,9.5,1.6,13.3,5.4c53.9,54,107.8,107.8,161.7,161.7c1.3,1.3,2.6,2.6,3.8,4c7.7,8.6,7.8,13.9-0.3,22.4
c-9.8,10.2-19.8,20.2-30,30c-8.9,8.5-14.1,8.4-23.1-0.1c-8.8-8.4-17.2-17.1-25.8-25.7C569.3,622,524.3,576.8,479,532
c-6.7-6.6-10.5-13.4-9.4-22.9C470,505.7,469.7,502.2,469.7,497.6z M65,283.3c-2.2,117,97.9,219.2,218.4,219.4
c118.7,0.1,219.2-99.3,219.4-218.8C503.1,164.1,401.8,64.6,284,64.4C165.9,64.2,63.1,164.6,65,283.3z"/>
</svg>