<?xml version="1.0" encoding="UTF-8" standalone="no"?>
<!DOCTYPE svg PUBLIC "-//W3C//DTD SVG 1.1//EN" "http://www.w3.org/Graphics/SVG/1.1/DTD/svg11.dtd">
<svg width="100%" height="100%" viewBox="0 0 36 36" version="1.1" xmlns="http://www.w3.org/2000/svg" xmlns:xlink="http://www.w3.org/1999/xlink" xml:space="preserve" xmlns:serif="http://www.serif.com/" style="fill-rule:evenodd;clip-rule:evenodd;stroke-linejoin:round;stroke-miterlimit:2;">
    <rect x="9" y="4" width="19" height="28" style="fill:rgb(235,235,235);"/>
    <path d="M7.5,0L28.5,0C32.643,0 36,3.358 36,7.5L36,28.5C36,32.642 32.643,36 28.5,36L7.5,36C3.358,36 0,32.642 0,28.5L0,7.5C0,3.358 3.358,0 7.5,0ZM21.114,10.5L24,10.5L24,6L20.192,6C16.596,6 15,7.582 15,10.616L15,13.5L12,13.5L12,18L15,18L15,30L19.5,30L19.5,18L23.643,18L24,13.5L19.5,13.5L19.5,11.834C19.5,10.878 20.192,10.5 21.114,10.5Z" style="fill:rgb(59,89,151);"/>
</svg>
