<?xml version="1.0" encoding="UTF-8" standalone="no"?>
<!DOCTYPE svg PUBLIC "-//W3C//DTD SVG 1.1//EN" "http://www.w3.org/Graphics/SVG/1.1/DTD/svg11.dtd">
<svg width="100%" height="100%" viewBox="0 0 36 36" version="1.1" xmlns="http://www.w3.org/2000/svg" xmlns:xlink="http://www.w3.org/1999/xlink" xml:space="preserve" xmlns:serif="http://www.serif.com/" style="fill-rule:evenodd;clip-rule:evenodd;stroke-linejoin:round;stroke-miterlimit:2;">
    <rect x="5" y="6" width="28" height="23" style="fill:white;"/>
    <path d="M7.5,0L28.5,0C32.643,0 36,3.358 36,7.5L36,28.5C36,32.642 32.643,36 28.5,36L7.5,36C3.358,36 0,32.642 0,28.5L0,7.5C0,3.358 3.358,0 7.5,0ZM14.297,28.503C23.441,28.503 28.605,20.781 28.292,13.855C29.256,13.161 30.092,12.294 30.75,11.31C29.868,11.702 28.919,11.966 27.923,12.086C28.938,11.477 29.718,10.512 30.087,9.362C29.135,9.926 28.08,10.335 26.958,10.556C26.061,9.597 24.78,9 23.366,9C20.187,9 17.849,11.966 18.567,15.045C14.475,14.839 10.847,12.879 8.418,9.9C7.13,12.114 7.751,15.009 9.942,16.475C9.137,16.449 8.376,16.227 7.713,15.858C7.661,18.14 9.294,20.273 11.663,20.748C10.971,20.936 10.212,20.979 9.44,20.832C10.065,22.788 11.883,24.212 14.039,24.252C11.969,25.874 9.362,26.598 6.749,26.291C8.928,27.689 11.516,28.503 14.297,28.503Z" style="fill:rgb(64,153,255);"/>
</svg>
