<svg width="166" height="48" viewBox="0 0 166 48" fill="none" xmlns="http://www.w3.org/2000/svg">
<mask id="mask0" mask-type="alpha" maskUnits="userSpaceOnUse" x="0" y="0" width="32" height="48">
<path fill-rule="evenodd" clip-rule="evenodd" d="M0 0.521973H31.1366V47.9286H0V0.521973Z" fill="white"/>
</mask>
<g mask="url(#mask0)">
<path fill-rule="evenodd" clip-rule="evenodd" d="M23.1337 21.7483C24.3608 26.0923 17.7717 28.7381 13.1518 30.5057C12.403 30.3372 8.76195 29.3876 8.00272 26.7017C6.77464 22.3577 13.3652 19.7125 17.9841 17.9443C18.7339 18.1134 22.375 19.0629 23.1337 21.7483ZM25.2702 14.8583C25.7198 14.6438 26.1954 14.4174 26.7361 14.1643C33.3371 11.0803 30.5598 4.86538 30.539 4.82312C30.5166 4.76156 28.2218 -1.30627 20.9974 1.07599C17.0347 2.38347 12.4976 4.58051 7.50977 7.6066C2.71659 10.5148 0.636645 15.8146 2.08173 21.4389C3.3067 26.2082 7.29226 29.8911 12.1708 30.8809C11.9819 30.9539 11.7977 31.0249 11.6187 31.0948C8.79458 32.1962 7.50353 32.8118 5.86851 33.5908C5.41838 33.8057 4.94224 34.0322 4.40001 34.2857C-2.20097 37.3703 0.576282 43.5852 0.597097 43.6269C0.61583 43.6786 2.22223 47.9287 6.97014 47.9287C7.90162 47.9287 8.95434 47.7654 10.1387 47.3741C14.1009 46.0671 18.638 43.8701 23.6269 40.8435C28.42 37.9358 30.4995 32.636 29.0549 27.0111C27.8289 22.2424 23.8439 18.5595 18.9659 17.5692C19.1548 17.4967 19.339 17.4257 19.518 17.3558C22.3431 16.2534 23.6347 15.6377 25.2702 14.8583Z" fill="white"/>
</g>
<path fill-rule="evenodd" clip-rule="evenodd" d="M43.1377 20.9202C43.1377 19.7781 44.1295 18.9674 45.4898 18.9674C46.9593 18.9674 47.9153 19.8517 48.1354 21.2515H51.9206C51.5896 17.7882 49.0538 15.7988 45.4898 15.7988C41.5578 15.7988 39.3894 18.3042 39.3894 20.9202C39.3894 27.4414 48.4658 25.5256 48.4658 28.8418C48.4658 29.7997 47.6207 30.647 45.8936 30.647C44.3502 30.647 42.9909 29.7627 42.8067 28.1416H39.022C39.2427 31.5679 42.0355 33.8155 45.8936 33.8155C49.4212 33.8155 52.251 31.8256 52.251 28.8418C52.251 22.2835 43.1377 24.1994 43.1377 20.9202Z" fill="white"/>
<path fill-rule="evenodd" clip-rule="evenodd" d="M65.9958 25.9679C65.9958 28.6574 64.7833 30.3155 62.2839 30.2785C59.7851 30.2785 58.5726 28.6574 58.5726 25.9308V16.167H54.714V26.2256C54.714 30.6468 57.5438 33.8153 62.2839 33.8153C66.8773 33.8524 69.8544 30.6098 69.8544 26.2621V16.167H65.9958V25.9679Z" fill="white"/>
<mask id="mask1" mask-type="alpha" maskUnits="userSpaceOnUse" x="0" y="0" width="166" height="48">
<path fill-rule="evenodd" clip-rule="evenodd" d="M0 47.9288H165.734V0.521973H0V47.9288Z" fill="white"/>
</mask>
<g mask="url(#mask1)">
<path fill-rule="evenodd" clip-rule="evenodd" d="M72.6474 33.447H76.506V16.167H72.6474V33.447Z" fill="white"/>
<path fill-rule="evenodd" clip-rule="evenodd" d="M74.5958 8.17188C73.1991 8.17188 72.0969 9.2404 72.0969 10.6402C72.0969 12.0035 73.1991 13.072 74.5958 13.072C75.9555 13.072 77.0577 12.0035 77.0577 10.6402C77.0577 9.2404 75.9555 8.17188 74.5958 8.17188Z" fill="white"/>
<path fill-rule="evenodd" clip-rule="evenodd" d="M86.282 10.3828H82.387V16.1673H79.3001V19.3724H82.424V27.5152C82.424 31.4945 85.0331 33.7051 88.5607 33.7051C89.3694 33.7051 90.1406 33.5945 90.9857 33.3738V30.1677C90.2509 30.2053 89.8471 30.2053 89.6265 30.2053C87.3113 30.2053 86.282 29.3945 86.282 27.0362V19.3724H91.3167V16.1673H86.282V10.3828Z" fill="white"/>
<path fill-rule="evenodd" clip-rule="evenodd" d="M96.7181 20.9202C96.7181 19.7781 97.7105 18.9674 99.0702 18.9674C100.54 18.9674 101.496 19.8517 101.716 21.2515H105.501C105.17 17.7882 102.635 15.7988 99.0702 15.7988C95.1382 15.7988 92.9698 18.3042 92.9698 20.9202C92.9698 27.4414 102.047 25.5256 102.047 28.8418C102.047 29.7997 101.202 30.647 99.4745 30.647C97.9311 30.647 96.5714 29.7627 96.3877 28.1416H92.6024C92.8231 31.5679 95.6159 33.8155 99.4745 33.8155C103.002 33.8155 105.832 31.8256 105.832 28.8418C105.832 22.2835 96.7181 24.1994 96.7181 20.9202Z" fill="white"/>
<path fill-rule="evenodd" clip-rule="evenodd" d="M132.328 15.7988C128.874 15.7988 127.073 18.0465 126.705 18.9303H126.632C126.228 18.0465 124.427 15.7988 120.973 15.7988C116.453 15.7988 113.734 18.8938 113.734 23.3886V33.4472H117.592V23.6834C117.592 20.9938 118.768 19.3357 121.156 19.3357C123.545 19.3357 124.721 20.9938 124.721 23.7204V33.4842H128.58V23.7204C128.58 20.9938 129.756 19.3357 132.144 19.3357C134.533 19.3357 135.709 20.9938 135.709 23.6834V33.4472H139.567V23.3886C139.567 18.8938 136.885 15.7988 132.328 15.7988Z" fill="white"/>
<path fill-rule="evenodd" clip-rule="evenodd" d="M145.889 23.278C146.403 20.8096 148.241 19.1881 150.777 19.1881C153.239 19.1881 155.113 21.0674 155.333 23.278H145.889ZM150.777 15.7988C145.632 15.7988 142.03 19.5564 142.03 24.8254C142.03 30.131 145.668 33.815 150.813 33.815C154.488 33.815 157.648 31.752 158.714 28.2517H154.929C154.194 29.6886 152.871 30.4258 150.777 30.4258C148.278 30.4258 146.403 28.8778 145.889 26.2253H159.118C159.155 25.6727 159.155 25.378 159.155 24.8254C159.155 19.667 155.481 15.7988 150.777 15.7988Z" fill="white"/>
<path fill-rule="evenodd" clip-rule="evenodd" d="M163.272 28.915C161.875 28.915 160.773 29.9836 160.773 31.3834C160.773 32.7467 161.875 33.8152 163.272 33.8152C164.631 33.8152 165.734 32.7467 165.734 31.3834C165.734 29.9836 164.631 28.915 163.272 28.915Z" fill="white"/>
</g>
</svg>
