<svg width="74" height="115" viewBox="0 0 74 115" fill="none" xmlns="http://www.w3.org/2000/svg">
<mask id="mask0_825_1658" style="mask-type:luminance" maskUnits="userSpaceOnUse" x="2" y="33" width="70" height="71">
<path d="M47.3156 101.904C50.5314 100.803 55.6328 98.3636 56.931 93.6944C59.8119 83.328 43.4283 77.2397 32.5875 73.213C31.6466 72.8629 30.7393 72.5258 29.8844 72.2017C23.2677 69.6874 20.2409 68.2812 16.4097 66.5007C15.3546 66.0072 14.2396 65.4894 12.9676 64.9121C-2.50318 57.8608 3.89464 43.4119 3.94328 43.3132C3.98818 43.194 7.67909 33.3193 18.7742 33.2485C20.9517 33.2355 23.4117 33.6005 26.1879 34.4889C35.4647 37.4614 46.0997 42.4844 57.8028 49.4276C69.0476 56.0989 73.9863 68.352 70.692 81.4097C67.942 92.3125 58.9233 100.818 47.7739 103.334L47.3175 101.906L47.3156 101.904Z" fill="white"/>
</mask>
<g mask="url(#mask0_825_1658)">
<path d="M32.6753 141.274L-37.592 65.4624L38.8102 -4.72854L109.078 71.0835L32.6753 141.274Z" fill="url(#paint0_linear_825_1658)"/>
</g>
<mask id="mask1_825_1658" style="mask-type:luminance" maskUnits="userSpaceOnUse" x="4" y="43" width="70" height="72">
<path d="M21.5838 114.998C23.7771 114.964 26.248 114.541 29.0243 113.584C38.3036 110.384 48.9069 105.083 60.5396 97.8289C71.7174 90.8571 76.4158 78.4019 72.8023 65.3194C69.5199 53.4425 58.8375 44.5869 46.2182 43.2835C45.9 43.2495 45.5924 43.4834 45.5476 43.8087C45.5049 44.134 45.7291 44.438 46.0537 44.4912C46.1584 44.5082 56.5673 46.3176 58.6645 53.249C61.8017 63.6269 45.4323 70.1267 34.6026 74.428C33.6607 74.8022 32.7552 75.1615 31.901 75.5081C25.2934 78.1871 22.2758 79.6712 18.4552 81.5529C17.4023 82.0717 16.2896 82.6202 15.0232 83.2304C-0.404455 90.6806 6.36758 105.094 6.4167 105.19C6.46155 105.307 10.3356 115 21.287 115C21.3852 115 21.4856 115 21.586 114.998" fill="white"/>
</mask>
<g mask="url(#mask1_825_1658)">
<path d="M42.061 153.027L112.25 75.3364L33.9499 5.21959L-36.2392 82.9103L42.061 153.027Z" fill="url(#paint1_linear_825_1658)"/>
</g>
<mask id="mask2_825_1658" style="mask-type:luminance" maskUnits="userSpaceOnUse" x="0" y="0" width="70" height="72">
<path d="M52.4162 0.00212502C50.2229 0.0361441 47.752 0.459258 44.9757 1.41604C35.6964 4.61596 25.0931 9.91656 13.4604 17.1711C2.2826 24.1429 -2.41575 36.5981 1.19771 49.6806C4.48015 61.5575 15.1625 70.4131 27.7818 71.7165C28.1001 71.7505 28.4076 71.5166 28.4524 71.1913C28.4951 70.866 28.2709 70.562 27.9463 70.5088C27.8416 70.4918 17.4327 68.6824 15.3355 61.751C12.1983 51.3731 28.5678 44.8733 39.3975 40.572C40.3393 40.1978 41.2448 39.8385 42.099 39.4919C48.7066 36.8129 51.7242 35.3288 55.5448 33.4471C56.5977 32.9283 57.7104 32.3798 58.9768 31.7696C74.4045 24.3194 67.6324 9.90593 67.5833 9.81025C67.5385 9.69331 63.6644 0 52.713 0C52.6148 0 52.5144 -1.1679e-06 52.414 0.00212502" fill="white"/>
</mask>
<g mask="url(#mask2_825_1658)">
<path d="M31.9391 -38.0271L-38.25 39.6636L40.0501 109.78L110.239 32.0897L31.9391 -38.0271Z" fill="url(#paint2_linear_825_1658)"/>
</g>
<defs>
<linearGradient id="paint0_linear_825_1658" x1="16.1791" y1="36.47" x2="44.996" y2="71.5708" gradientUnits="userSpaceOnUse">
<stop offset="0.00520833" stop-color="#EE8145"/>
<stop offset="0.202228" stop-color="#ED763F"/>
<stop offset="0.607879" stop-color="#F3A055"/>
<stop offset="1" stop-color="#FBCC6D"/>
</linearGradient>
<linearGradient id="paint1_linear_825_1658" x1="25.2098" y1="118.354" x2="50.9838" y2="67.4784" gradientUnits="userSpaceOnUse">
<stop stop-color="#472EFF"/>
<stop offset="1" stop-color="#4D96FF"/>
</linearGradient>
<linearGradient id="paint2_linear_825_1658" x1="-16.4304" y1="59.097" x2="53.4157" y2="-18.9008" gradientUnits="userSpaceOnUse">
<stop stop-color="#815FF6"/>
<stop offset="1" stop-color="#BD71FF"/>
</linearGradient>
</defs>
</svg>
