<?xml version="1.0" encoding="UTF-8"?> <svg xmlns="http://www.w3.org/2000/svg" xmlns:xlink="http://www.w3.org/1999/xlink" width="180px" height="180px" viewBox="0 0 180 180" version="1.1"><title>SuitsMe_Favicon_180x180_Gradient@2x</title><defs><path d="M85.3554859,0.270335302 C81.8479955,0.276255053 77.8902724,0.893882421 73.4351305,2.3659272 L73.4351305,2.3659272 C58.4634157,7.31089264 41.3191803,15.62025 22.4762499,27.0651022 L22.4762499,27.0651022 C4.36470214,38.0639998 -3.49372779,58.1082771 1.96804813,79.3779429 L1.96804813,79.3779429 C6.59620526,97.4173978 21.6524616,111.344599 40.0825147,115.091801 L40.0825147,115.091801 C40.8256937,114.80568 41.5865674,114.513639 42.3631698,114.217652 L42.3631698,114.217652 C42.8330634,114.038086 43.3108214,113.854573 43.7925115,113.669088 L43.7925115,113.669088 C40.9633194,113.031728 40.9633194,112.980424 43.7925115,113.617783 L43.7925115,113.617783 C61.2473879,106.932411 86.1438848,96.9260585 81.5058973,80.4967759 L81.5058973,80.4967759 C78.6609765,70.4233327 65.1166373,66.8103112 62.1340909,66.1315131 L62.1340909,66.1315131 C62.5862897,65.9578671 63.0345565,65.7881675 63.4769249,65.618468 L63.4769249,65.618468 C64.2515612,65.3205072 65.0144011,65.0284662 65.7575801,64.7443181 L65.7575801,64.7443181 C66.4712679,64.4700363 67.1672609,64.2016742 67.8435931,63.9352854 L67.8435931,63.9352854 C78.5174526,59.7677807 83.3992343,57.4393452 89.5766641,54.4913091 L89.5766641,54.4913091 C91.2753589,53.67833 93.074324,52.8239126 95.1151172,51.8668861 L95.1151172,51.8668861 C120.054868,40.2030032 109.561888,16.6956714 109.483245,16.5378114 L109.483245,16.5378114 C109.414432,16.3424596 103.347103,0.294014306 85.4400274,0.270335302 L85.4400274,0.270335302 L85.3554859,0.270335302 Z" id="path-1"></path><linearGradient x1="93.3607386%" y1="6.44225589%" x2="6.23826539%" y2="95.1110618%" id="linearGradient-3"><stop stop-color="#CE6CFF" offset="0%"></stop><stop stop-color="#3C54F0" offset="100%"></stop></linearGradient><path d="M69.375171,1.45757065 C68.9328026,1.62727019 68.4845359,1.79696972 68.032337,1.97061575 L68.032337,1.97061575 C68.008744,1.964696 67.9713885,1.956803 67.9477955,1.94891 L67.9477955,1.94891 C50.4948852,8.63625552 25.5964221,18.6426082 30.2344097,35.0699176 L30.2344097,35.0699176 C33.1029234,45.2282105 46.8615655,48.8195262 49.6907576,49.4568861 L49.6907576,49.4568861 C65.5059216,43.4009807 65.5255824,43.4463654 49.6907576,49.5081906 L49.6907576,49.5081906 C49.2090675,49.6936761 48.7313096,49.8771884 48.261416,50.0567542 L48.261416,50.0567542 C47.4848136,50.3527417 46.7239398,50.6447828 45.9807608,50.9309041 L45.9807608,50.9309041 C45.2690391,51.2032126 44.5750121,51.4735479 43.8986799,51.7359902 L43.8986799,51.7359902 C33.2287526,55.903495 28.3509031,58.2299572 22.1734733,61.17602 L22.1734733,61.17602 C20.4728123,61.9909725 18.6738473,62.8473631 16.6251898,63.8043895 L16.6251898,63.8043895 C3.15556168,70.104978 0.0216269025,79.8607279 0,87.5248323 L0,87.5248323 L0,87.6846656 C0.0176947384,94.1332478 2.22167271,99.0644005 2.25706219,99.1354375 L2.25706219,99.1354375 C2.32784114,99.3288161 8.39713641,115.404887 26.3376351,115.404887 L26.3376351,115.404887 C29.8569219,115.404887 33.8323398,114.78726 38.3071426,113.305348 L38.3071426,113.305348 C53.2729591,108.36433 70.4191606,100.052999 89.2660231,88.6081468 L89.2660231,88.6081468 C107.375605,77.6092492 115.234035,57.5669451 109.776191,36.2933328 L109.776191,36.2933328 C105.144102,18.2558511 90.0878454,4.32864995 71.6558262,0.583420737 L71.6558262,0.583420737 C70.9126472,0.867568792 70.1498074,1.15960985 69.375171,1.45757065" id="path-4"></path><linearGradient x1="79.7120356%" y1="25.3212497%" x2="2.86671739%" y2="100%" id="linearGradient-6"><stop stop-color="#00DFC1" offset="0%"></stop><stop stop-color="#3C54F0" offset="100%"></stop></linearGradient><path d="M0.743179013,34.1135525 C3.61169272,44.2718454 17.3703349,47.8631611 20.1995269,48.500521 L20.1995269,48.500521 C37.6544033,41.8151487 62.5489342,31.8087961 57.9129127,15.3795134 L57.9129127,15.3795134 C55.044399,5.22319375 41.289689,1.63187806 38.4565648,0.992544939 L38.4565648,0.992544939 C21.0036545,7.67989046 -3.89480853,17.6862431 0.743179013,34.1135525" id="path-7"></path><linearGradient x1="95.9995882%" y1="21.0763137%" x2="3.57501197%" y2="79.9551372%" id="linearGradient-9"><stop stop-color="#FFCE6C" offset="0%"></stop><stop stop-color="#FF7636" offset="100%"></stop></linearGradient></defs><g id="SuitsMe_Favicon_180x180_Gradient" stroke="none" stroke-width="1" fill="none" fill-rule="evenodd"><g id="Group-23" transform="translate(31.000000, 0.000000)"><g id="Group-16" transform="translate(5.898246, 0.202790)"><mask id="mask-2" fill="white"><use xlink:href="#path-1"></use></mask><g id="Clip-15"></g><path d="M85.3554859,0.270335302 C81.8479955,0.276255053 77.8902724,0.893882421 73.4351305,2.3659272 L73.4351305,2.3659272 C58.4634157,7.31089264 41.3191803,15.62025 22.4762499,27.0651022 L22.4762499,27.0651022 C4.36470214,38.0639998 -3.49372779,58.1082771 1.96804813,79.3779429 L1.96804813,79.3779429 C6.59620526,97.4173978 21.6524616,111.344599 40.0825147,115.091801 L40.0825147,115.091801 C40.8256937,114.80568 41.5865674,114.513639 42.3631698,114.217652 L42.3631698,114.217652 C42.8330634,114.038086 43.3108214,113.854573 43.7925115,113.669088 L43.7925115,113.669088 C40.9633194,113.031728 40.9633194,112.980424 43.7925115,113.617783 L43.7925115,113.617783 C61.2473879,106.932411 86.1438848,96.9260585 81.5058973,80.4967759 L81.5058973,80.4967759 C78.6609765,70.4233327 65.1166373,66.8103112 62.1340909,66.1315131 L62.1340909,66.1315131 C62.5862897,65.9578671 63.0345565,65.7881675 63.4769249,65.618468 L63.4769249,65.618468 C64.2515612,65.3205072 65.0144011,65.0284662 65.7575801,64.7443181 L65.7575801,64.7443181 C66.4712679,64.4700363 67.1672609,64.2016742 67.8435931,63.9352854 L67.8435931,63.9352854 C78.5174526,59.7677807 83.3992343,57.4393452 89.5766641,54.4913091 L89.5766641,54.4913091 C91.2753589,53.67833 93.074324,52.8239126 95.1151172,51.8668861 L95.1151172,51.8668861 C120.054868,40.2030032 109.561888,16.6956714 109.483245,16.5378114 L109.483245,16.5378114 C109.414432,16.3424596 103.347103,0.294014306 85.4400274,0.270335302 L85.4400274,0.270335302 L85.3554859,0.270335302 Z" id="Fill-14" fill="url(#linearGradient-3)" mask="url(#mask-2)"></path></g><g id="Group-19" transform="translate(0.000000, 64.363687)"><mask id="mask-5" fill="white"><use xlink:href="#path-4"></use></mask><g id="Clip-18"></g><path d="M69.375171,1.45757065 C68.9328026,1.62727019 68.4845359,1.79696972 68.032337,1.97061575 L68.032337,1.97061575 C68.008744,1.964696 67.9713885,1.956803 67.9477955,1.94891 L67.9477955,1.94891 C50.4948852,8.63625552 25.5964221,18.6426082 30.2344097,35.0699176 L30.2344097,35.0699176 C33.1029234,45.2282105 46.8615655,48.8195262 49.6907576,49.4568861 L49.6907576,49.4568861 C65.5059216,43.4009807 65.5255824,43.4463654 49.6907576,49.5081906 L49.6907576,49.5081906 C49.2090675,49.6936761 48.7313096,49.8771884 48.261416,50.0567542 L48.261416,50.0567542 C47.4848136,50.3527417 46.7239398,50.6447828 45.9807608,50.9309041 L45.9807608,50.9309041 C45.2690391,51.2032126 44.5750121,51.4735479 43.8986799,51.7359902 L43.8986799,51.7359902 C33.2287526,55.903495 28.3509031,58.2299572 22.1734733,61.17602 L22.1734733,61.17602 C20.4728123,61.9909725 18.6738473,62.8473631 16.6251898,63.8043895 L16.6251898,63.8043895 C3.15556168,70.104978 0.0216269025,79.8607279 0,87.5248323 L0,87.5248323 L0,87.6846656 C0.0176947384,94.1332478 2.22167271,99.0644005 2.25706219,99.1354375 L2.25706219,99.1354375 C2.32784114,99.3288161 8.39713641,115.404887 26.3376351,115.404887 L26.3376351,115.404887 C29.8569219,115.404887 33.8323398,114.78726 38.3071426,113.305348 L38.3071426,113.305348 C53.2729591,108.36433 70.4191606,100.052999 89.2660231,88.6081468 L89.2660231,88.6081468 C107.375605,77.6092492 115.234035,57.5669451 109.776191,36.2933328 L109.776191,36.2933328 C105.144102,18.2558511 90.0878454,4.32864995 71.6558262,0.583420737 L71.6558262,0.583420737 C70.9126472,0.867568792 70.1498074,1.15960985 69.375171,1.45757065" id="Fill-17" fill="url(#linearGradient-6)" mask="url(#mask-5)"></path></g><g id="Group-22" transform="translate(29.491231, 65.320052)"><mask id="mask-8" fill="white"><use xlink:href="#path-7"></use></mask><g id="Clip-21"></g><path d="M0.743179013,34.1135525 C3.61169272,44.2718454 17.3703349,47.8631611 20.1995269,48.500521 L20.1995269,48.500521 C37.6544033,41.8151487 62.5489342,31.8087961 57.9129127,15.3795134 L57.9129127,15.3795134 C55.044399,5.22319375 41.289689,1.63187806 38.4565648,0.992544939 L38.4565648,0.992544939 C21.0036545,7.67989046 -3.89480853,17.6862431 0.743179013,34.1135525" id="Fill-20" fill="url(#linearGradient-9)" mask="url(#mask-8)"></path></g></g></g></svg> 