<svg width="232" height="239" viewBox="0 0 232 239" fill="none" xmlns="http://www.w3.org/2000/svg">
<path fill-rule="evenodd" clip-rule="evenodd" d="M227.303 33.6686C227.131 33.1867 209.083 -14.3112 152.28 4.33676C121.123 14.5715 85.4448 31.7695 46.2274 55.4572C8.54421 78.2219 -7.8097 119.708 3.54843 163.734C13.8673 203.709 49.0587 233.952 91.1157 238.984C91.1975 238.996 91.2794 239 91.3612 239C92.3595 239 93.2269 238.277 93.3824 237.268C93.5502 236.174 92.8178 235.149 91.7294 234.949C91.3817 234.887 56.7304 228.267 50.1061 204.931C40.1882 169.991 95.1704 149.085 131.557 135.252C134.723 134.047 137.768 132.887 140.644 131.772C162.861 123.143 173.016 118.324 185.876 112.222C189.411 110.543 193.151 108.771 197.402 106.79C249.303 82.649 227.466 33.9995 227.303 33.6686" fill="url(#paint0_linear)"/>
<defs>
<linearGradient id="paint0_linear" x1="124.554" y1="-42.1492" x2="-77.8028" y2="119.611" gradientUnits="userSpaceOnUse">
<stop stop-color="#CE6CFF"/>
<stop offset="1" stop-color="#3C54F0"/>
</linearGradient>
</defs>
</svg>
