<svg width="233" height="239" viewBox="0 0 233 239" fill="none" xmlns="http://www.w3.org/2000/svg">
<path fill-rule="evenodd" clip-rule="evenodd" d="M227.803 33.5674C227.631 33.0869 209.583 -14.2681 152.78 4.32372C121.623 14.5277 85.9448 31.674 46.7274 55.2905C9.04421 77.9867 -7.3097 119.348 4.04843 163.242C14.3673 203.097 49.5587 233.249 91.6157 238.265C91.6975 238.277 91.7794 238.281 91.8612 238.281C92.8595 238.281 93.7269 237.561 93.8824 236.555C94.0502 235.464 93.3178 234.442 92.2294 234.242C91.8817 234.181 57.2304 227.581 50.6061 204.314C40.6882 169.48 95.6704 148.637 132.057 134.845C135.223 133.644 138.268 132.488 141.144 131.376C163.361 122.773 173.516 117.968 186.376 111.884C189.911 110.211 193.651 108.444 197.902 106.469C249.803 82.4006 227.966 33.8972 227.803 33.5674" fill="url(#paint0_linear)"/>
<defs>
<linearGradient id="paint0_linear" x1="120.363" y1="-94.7646" x2="-99.5453" y2="110.646" gradientUnits="userSpaceOnUse">
<stop stop-color="#FFCE6C"/>
<stop offset="1" stop-color="#FF7636"/>
</linearGradient>
</defs>
</svg>
