<svg xmlns="http://www.w3.org/2000/svg" viewBox="0 0 512 384"><path d="M0 0h512v384H0z" style="fill:#f0f0f0"/><path d="M0 48h512v48H0z" style="fill:#d80027"/><path d="M0 96h512v48H0z" style="fill:#0052b4"/><path d="M0 192h512v48H0z" style="fill:#d80027"/><path d="M0 240h512v48H0z" style="fill:#0052b4"/><path d="M0 336h512v48H0z" style="fill:#d80027"/><path d="M0 .002h256v192H0z" style="fill:#f0f0f0"/><path d="M144 0h-32v69.334H0v32h112v69.333h32v-69.333h112v-32H144z" style="fill:#d80027" transform="scale(1 1.125)"/><path d="M196.892 200.351 256 233.188v-32.837zM155.826 200.351 256 256.003v-15.737l-71.847-39.915zM229.317 256.003l-73.491-40.832v40.832z" style="fill:#0052b4" transform="matrix(1 0 0 1.125 0 -96.003)"/><path d="M155.826 115.015 256 170.667V154.93l-71.847-39.915z" style="fill:#f0f0f0" transform="scale(1 1.125)"/><path d="M155.826 115.015 256 170.667V154.93l-71.847-39.915z" style="fill:#d80027" transform="scale(1 1.125)"/><path d="M45.171 200.35 0 225.445V200.35zM100.174 207.427v48.575H12.745z" style="fill:#0052b4" transform="matrix(1 0 0 1.125 0 -96.003)"/><path d="M71.846 115.015 0 154.93v15.737l100.174-55.652z" style="fill:#d80027" transform="scale(1 1.125)"/><path d="M59.108 140.988 0 108.151v32.837zM100.174 140.988 0 85.336v15.737l71.847 39.915zM26.683 85.336l73.491 40.833V85.336z" style="fill:#0052b4" transform="matrix(1 0 0 1.125 0 -96.003)"/><path d="M100.174 55.652 0 0v15.737l71.847 39.915z" style="fill:#f0f0f0" transform="scale(1 1.125)"/><path d="M100.174 55.652 0 0v15.737l71.847 39.915z" style="fill:#d80027" transform="scale(1 1.125)"/><path d="M210.829 140.989 256 115.895v25.094zM155.826 133.912V85.337h87.429z" style="fill:#0052b4" transform="matrix(1 0 0 1.125 0 -96.003)"/><path d="M184.154 55.652 256 15.738V0L155.826 55.652z" style="fill:#d80027" transform="scale(1 1.125)"/><rect width="100%" height="100%" style="fill:rgb(255,255,255,.2)"/></svg>