<svg width="16" height="12" viewBox="0 0 16 12" fill="none"
  xmlns="http://www.w3.org/2000/svg">
  <path d="M5.21189 12C10.8722 12 13.9694 7.38189 13.9694 3.38385C13.9694 3.25393 13.9694 3.12401 13.9634 2.99409C14.5636 2.56889 15.0859 2.03149 15.5 1.42323C14.9478 1.66535 14.3536 1.8248 13.7293 1.90157C14.3656 1.52953 14.8518 0.933072 15.0859 0.224409C14.4916 0.572833 13.8313 0.820865 13.129 0.956689C12.5648 0.366142 11.7665 0 10.8842 0C9.18548 0 7.8049 1.35826 7.8049 3.02952C7.8049 3.26575 7.83495 3.49606 7.88295 3.72047C5.32594 3.59645 3.05702 2.38583 1.53842 0.555119C1.27431 1.00393 1.12425 1.52362 1.12425 2.07874C1.12425 3.12992 1.67047 4.05708 2.4928 4.60037C1.9886 4.58266 1.51441 4.44685 1.10024 4.22244C1.10024 4.23425 1.10024 4.24606 1.10024 4.26377C1.10024 5.72834 2.16266 6.95667 3.56723 7.23426C3.30912 7.3051 3.03902 7.34052 2.7569 7.34052C2.55882 7.34052 2.36675 7.32281 2.18067 7.28739C2.57083 8.49211 3.71128 9.36615 5.05582 9.38976C3.9994 10.2047 2.67287 10.689 1.2323 10.689C0.986194 10.689 0.740096 10.6772 0.5 10.6476C1.85654 11.498 3.47719 12 5.21189 12Z" fill="#FFF"/>
</svg>
