<svg width="38" height="36" viewBox="0 0 38 36" fill="none" xmlns="http://www.w3.org/2000/svg">
<path d="M28.7788 9.03174C28.9756 9.54046 29.1385 10.0616 29.2665 10.5917C32.5663 12.0671 35.0741 14.8815 36.1554 18.3228C37.2366 21.7641 36.7877 25.5024 34.9221 28.5917C34.8642 28.6892 34.8336 28.8005 34.8335 28.9138V33.9728L30.4888 33.1644C30.3484 33.1376 30.203 33.1599 30.0771 33.2275C24.8249 36.0482 18.3107 34.83 14.4401 30.3033C14.2691 30.316 14.1045 30.3159 13.9335 30.3159C13.5535 30.3159 13.1735 30.3033 12.7998 30.2717C16.8478 35.8281 24.3591 37.6021 30.4761 34.4465L35.3528 35.3559C35.5371 35.3927 35.7282 35.3439 35.8721 35.2233C36.0174 35.1035 36.1011 34.925 36.1001 34.737V29.0844C38.1874 25.523 38.5763 21.2198 37.1611 17.3437C35.7459 13.4676 32.6736 10.4211 28.7788 9.03174Z" fill="white"/>
<path d="M8.12988 15.158H10.8697L9.49978 12.23L8.12988 15.158Z" fill="white"/>
<path fill-rule="evenodd" clip-rule="evenodd" d="M27.8667 14.5265C27.8734 12.5228 27.4387 10.5421 26.5933 8.72448C24.454 4.06249 19.9135 0.954782 14.782 0.640477C9.65053 0.326173 4.76272 2.85639 2.06746 7.22227C-0.627802 11.5881 -0.69216 17.0796 1.90005 21.5071V27.1581C1.89999 27.346 1.9839 27.5242 2.12895 27.6441C2.274 27.7641 2.46511 27.8134 2.65029 27.7785L7.52462 26.8657C9.50657 27.8847 11.7035 28.4179 13.9334 28.4212C21.625 28.4126 27.8581 22.1968 27.8667 14.5265ZM14.8042 17.191C16.3891 15.888 17.4167 14.0319 17.6781 12.0002H15.8334C15.4836 12.0002 15.2 11.7174 15.2 11.3686C15.2 11.0198 15.4836 10.737 15.8334 10.737H20.9C21.2498 10.737 21.5334 11.0198 21.5334 11.3686C21.5334 11.7174 21.2498 12.0002 20.9 12.0002H19.0578C19.3226 14.0302 20.3485 15.8849 21.9292 17.191C22.106 17.332 22.1939 17.5564 22.1598 17.7796C22.1257 18.0027 21.9748 18.1908 21.764 18.273C21.5531 18.3551 21.3143 18.3189 21.1375 18.1778C19.89 17.1792 18.9333 15.8658 18.3667 14.374C17.8001 15.8658 16.8434 17.1792 15.5959 18.1778C15.3226 18.3958 14.9239 18.3517 14.7053 18.0791C14.4866 17.8066 14.5309 17.409 14.8042 17.191ZM12.5349 18.278C12.6928 18.3352 12.867 18.3276 13.0192 18.2568C13.1715 18.186 13.2893 18.0577 13.3467 17.9003C13.4041 17.7428 13.3964 17.5691 13.3254 17.4173L10.074 10.4699C9.97 10.2475 9.74618 10.1053 9.50008 10.1053C9.25398 10.1053 9.03016 10.2475 8.92612 10.4699L5.67471 17.4173C5.57902 17.6218 5.6 17.8616 5.72974 18.0465C5.85948 18.2314 6.07827 18.3332 6.3037 18.3136C6.52913 18.294 6.72694 18.156 6.82263 17.9515L7.544 16.41C7.5527 16.4108 7.56088 16.4131 7.56906 16.4155C7.57908 16.4183 7.58909 16.4212 7.60005 16.4212H11.4C11.411 16.4212 11.421 16.4183 11.431 16.4155C11.4392 16.4131 11.4474 16.4108 11.4561 16.41L12.1775 17.9515C12.2485 18.1033 12.3771 18.2207 12.5349 18.278Z" fill="white"/>
</svg>
