<svg width="37" height="37" viewBox="0 0 37 37" fill="none"
  xmlns="http://www.w3.org/2000/svg">
  <path fill-rule="evenodd" clip-rule="evenodd" d="M11.1044 0.67043C13.0176 0.583119 13.6284 0.5625 18.5 0.5625C23.3715 0.5625 23.9824 0.583119 25.8956 0.67043C27.8049 0.757513 29.1088 1.06076 30.2497 1.50426C31.4293 1.96257 32.4296 2.57594 33.4269 3.57313C34.424 4.57034 35.0374 5.57071 35.4958 6.75024C35.9392 7.89118 36.2425 9.19518 36.3296 11.1044C36.4168 13.0176 36.4375 13.6284 36.4375 18.5001C36.4375 23.3714 36.4168 23.9824 36.3296 25.8956C36.2425 27.8047 35.9392 29.1088 35.4958 30.2497C35.0374 31.4293 34.424 32.4296 33.4269 33.4269C32.4296 34.424 31.4293 35.0373 30.2497 35.4958C29.1088 35.9392 27.8049 36.2425 25.8956 36.3295C23.9824 36.4168 23.3715 36.4375 18.5 36.4375C13.6284 36.4375 13.0176 36.4168 11.1044 36.3295C9.19514 36.2425 7.89122 35.9392 6.75024 35.4958C5.5707 35.0373 4.57038 34.424 3.5731 33.4269C2.5759 32.4296 1.96258 31.4293 1.50422 30.2497C1.06078 29.1088 0.757533 27.8047 0.670448 25.8956C0.583157 23.9824 0.5625 23.3714 0.5625 18.5001C0.5625 13.6284 0.583157 13.0176 0.670448 11.1044C0.757533 9.19518 1.06078 7.89118 1.50422 6.75024C1.96258 5.57071 2.5759 4.57034 3.5731 3.57313C4.57038 2.57594 5.5707 1.96257 6.75024 1.50426C7.89122 1.06076 9.19514 0.757513 11.1044 0.67043ZM29.079 4.51665C28.447 4.27102 27.4971 3.9788 25.7483 3.89904C23.8569 3.81272 23.2895 3.79444 18.5001 3.79444C13.7105 3.79444 13.1431 3.81272 11.2517 3.89904C9.50283 3.9788 8.55305 4.27102 7.92099 4.51665C7.08371 4.84201 6.48617 5.23076 5.85852 5.85848C5.23079 6.48612 4.84211 7.08363 4.51669 7.92093C4.27106 8.55303 3.97883 9.5028 3.89908 11.2517C3.81279 13.1431 3.79449 13.7105 3.79449 18.4999C3.79449 23.2895 3.81279 23.8568 3.89908 25.7482C3.97883 27.4971 4.27106 28.4469 4.51669 29.079C4.84211 29.9162 5.23087 30.5138 5.85852 31.1414C6.48617 31.7691 7.08371 32.1579 7.92099 32.4832C8.55305 32.7288 9.50283 33.0211 11.2517 33.1008C13.143 33.1872 13.7101 33.2054 18.5001 33.2054C23.2899 33.2054 23.8571 33.1872 25.7483 33.1008C27.4971 33.0211 28.447 32.7288 29.079 32.4832C29.9164 32.1579 30.5138 31.7691 31.1414 31.1414C31.7692 30.5138 32.1579 29.9162 32.4833 29.079C32.729 28.4469 33.0211 27.4971 33.101 25.7482C33.1872 23.8568 33.2055 23.2895 33.2055 18.4999C33.2055 13.7105 33.1872 13.1431 33.101 11.2517C33.0211 9.5028 32.729 8.55303 32.4833 7.92093C32.1579 7.08363 31.7692 6.48612 31.1414 5.85848C30.5138 5.23076 29.9164 4.84201 29.079 4.51665ZM9.28884 18.4999C9.28884 13.4127 13.4127 9.28883 18.5 9.28883C23.5872 9.28883 27.7111 13.4127 27.7111 18.4999C27.7111 23.5872 23.5872 27.7111 18.5 27.7111C13.4127 27.7111 9.28884 23.5872 9.28884 18.4999ZM12.5208 18.5001C12.5208 21.8022 15.1977 24.4792 18.5 24.4792C21.8022 24.4792 24.4792 21.8022 24.4792 18.5001C24.4792 15.1978 21.8022 12.5208 18.5 12.5208C15.1977 12.5208 12.5208 15.1978 12.5208 18.5001ZM30.2276 8.92493C30.2276 10.1137 29.2638 11.0774 28.075 11.0774C26.8863 11.0774 25.9226 10.1137 25.9226 8.92493C25.9226 7.73613 26.8863 6.77239 28.075 6.77239C29.2638 6.77239 30.2276 7.73613 30.2276 8.92493Z" fill="#FFF"/>
</svg>
