<svg width="48" height="47" viewBox="0 0 48 47" fill="none" xmlns="http://www.w3.org/2000/svg">
<path d="M36.352 11.5403C36.6006 12.1903 36.8064 12.8562 36.968 13.5336C41.1361 15.4188 44.3039 19.015 45.6697 23.4122C47.0355 27.8094 46.4685 32.5861 44.112 36.5336C44.0388 36.6582 44.0001 36.8004 44 36.9452V43.4094L38.512 42.3764C38.3346 42.3422 38.1509 42.3707 37.992 42.4571C31.3576 46.0613 23.1291 44.5048 18.24 38.7206C18.024 38.7368 17.816 38.7368 17.6 38.7368C17.12 38.7368 16.64 38.7206 16.168 38.6803C21.2813 45.7801 30.7692 48.0468 38.496 44.0147L44.656 45.1768C44.8888 45.2237 45.1302 45.1613 45.312 45.0073C45.4955 44.8542 45.6012 44.6261 45.6 44.3859V37.1631C48.2365 32.6125 48.7277 27.1139 46.9401 22.1611C45.1525 17.2083 41.2717 13.3156 36.352 11.5403Z" fill="black"/>
<path d="M10.2698 19.3685H13.7306L12.0002 15.6272L10.2698 19.3685Z" fill="black"/>
<path fill-rule="evenodd" clip-rule="evenodd" d="M35.2001 18.5614C35.2085 16.0012 34.6594 13.4703 33.5915 11.1477C30.8893 5.19074 25.1539 1.21978 18.672 0.818171C12.1901 0.416559 6.01607 3.64961 2.61153 9.22824C-0.793014 14.8069 -0.874307 21.8238 2.40006 27.4811V34.7018C2.39999 34.9419 2.50598 35.1695 2.6892 35.3228C2.87243 35.4761 3.11383 35.5391 3.34774 35.4946L9.50478 34.3282C12.0083 35.6302 14.7834 36.3116 17.6001 36.3158C27.3157 36.3048 35.1891 28.3623 35.2001 18.5614ZM18.7 21.966C20.7019 20.3011 22 17.9294 22.3301 15.3333H20C19.5581 15.3333 19.2 14.972 19.2 14.5263C19.2 14.0806 19.5581 13.7193 20 13.7193H26.4C26.8418 13.7193 27.2 14.0806 27.2 14.5263C27.2 14.972 26.8418 15.3333 26.4 15.3333H24.0729C24.4073 17.9272 25.7033 20.2971 27.7 21.966C27.9233 22.1462 28.0343 22.4329 27.9912 22.7181C27.9482 23.0033 27.7576 23.2436 27.4912 23.3486C27.2249 23.4535 26.9233 23.4072 26.7 23.227C25.1241 21.951 23.9157 20.2728 23.2 18.3665C22.4843 20.2728 21.2758 21.951 19.7 23.227C19.3548 23.5056 18.8511 23.4491 18.575 23.1009C18.2988 22.7527 18.3548 22.2446 18.7 21.966ZM15.8336 23.355C16.033 23.4282 16.2531 23.4184 16.4453 23.3279C16.6377 23.2374 16.7864 23.0735 16.859 22.8724C16.9315 22.6712 16.9218 22.4492 16.8321 22.2552L12.7251 13.378C12.5937 13.0938 12.311 12.9122 12.0001 12.9122C11.6892 12.9122 11.4065 13.0938 11.2751 13.378L7.16807 22.2552C7.0472 22.5165 7.07369 22.823 7.23757 23.0592C7.40145 23.2955 7.67782 23.4256 7.96257 23.4005C8.24732 23.3755 8.4972 23.1991 8.61807 22.9378L9.52927 20.9681C9.54026 20.9691 9.5506 20.9721 9.56092 20.9751C9.57358 20.9788 9.58623 20.9825 9.60007 20.9825H14.4001C14.4139 20.9825 14.4266 20.9788 14.4392 20.9751C14.4495 20.9721 14.4599 20.9691 14.4709 20.9681L15.3821 22.9378C15.4718 23.1318 15.6342 23.2818 15.8336 23.355Z" fill="black"/>
</svg>
