<svg xmlns="http://www.w3.org/2000/svg" xmlns:xlink="http://www.w3.org/1999/xlink" viewBox="0 0 512 512"><clipPath id="a"><circle cx="50%" cy="50%" r="50%" fill="#fff"/></clipPath><g fill-rule="evenodd" clip-path="url(#a)"><path fill="#fff" d="M0 0h512v512H0Z"/><g transform="rotate(-56.3 367.2 -111.2)scale(9.375)"><g id="c"><path id="b" fill="#000001" d="M-6-26H6v2H-6Zm0 3H6v2H-6Zm0 3H6v2H-6Z"/><use xlink:href="#b" width="100%" height="100%" y="44"/></g><path stroke="#fff" d="M0 17v10"/><path fill="#cd2e3a" d="M0-12a12 12 0 0 1 0 24Z"/><path fill="#0047a0" d="M0-12a12 12 0 0 0 0 24A6 6 0 0 0 0 0Z"/><circle cy="-6" r="6" fill="#cd2e3a"/></g><g transform="rotate(236.3 196.5 59.5)scale(9.375)"><use xlink:href="#c" width="100%" height="100%"/><path stroke="#fff" d="M0-23.5v3M0 17v3.5m0 3v3"/></g></g></svg>