<svg width="32" height="32" viewBox="0 0 32 32" fill="none" xmlns="http://www.w3.org/2000/svg">
<path fill-rule="evenodd" clip-rule="evenodd" d="M31.3517 4.53367C31.3277 4.46914 28.8386 -1.92779 21.0041 0.584346C16.7076 1.96287 11.7851 4.27849 6.37654 7.46669C1.17864 10.5332 -1.07719 16.1191 0.4894 22.0482C1.81822 27.0754 6.14178 30.9573 11.4315 32C11.6437 31.9208 11.8619 31.8402 12.0846 31.7566C12.22 31.7067 12.357 31.6568 12.4969 31.604C11.6843 31.4266 7.73395 30.4264 6.91078 27.5946C5.58045 23.0161 12.7257 20.2283 17.7355 18.3644C17.8739 18.313 18.0109 18.2617 18.1463 18.2133C18.369 18.1297 18.5872 18.0491 18.8009 17.9684C19.0056 17.8921 19.2057 17.8173 19.3999 17.744C22.4638 16.5825 23.8634 15.9329 25.6377 15.1116C26.1252 14.8858 26.6414 14.6467 27.2283 14.3798C34.3871 11.13 31.3743 4.57766 31.3517 4.53367Z" fill="#282D2D"/>
</svg>
