<?xml version="1.0" encoding="UTF-8"?>
<svg width="999px" height="285px" viewBox="0 0 999 285" version="1.1" xmlns="http://www.w3.org/2000/svg" xmlns:xlink="http://www.w3.org/1999/xlink">
    <title>SuitsMe_Logo1/A Copy 2@1x</title>
    <defs>
        <polygon id="path-1" points="0 284.869565 998.394984 284.869565 998.394984 0.428869565 0 0.428869565"></polygon>
        <path d="M136.094044,0.428869565 C130.501567,0.43826087 124.191223,1.41808696 117.087774,3.7533913 L117.087774,3.7533913 C93.2163009,11.5982609 65.8808777,24.7805217 35.8369906,42.9370435 L35.8369906,42.9370435 C6.95924765,60.386087 -5.57053292,92.1850435 3.13793103,125.928 L3.13793103,125.928 C10.5172414,154.546435 34.523511,176.641043 63.9090909,182.585739 L63.9090909,182.585739 C65.0940439,182.131826 66.30721,181.668522 67.5454545,181.198957 L67.5454545,181.198957 C68.2946708,180.914087 69.0564263,180.622957 69.8244514,180.328696 L69.8244514,180.328696 C65.3134796,179.317565 65.3134796,179.236174 69.8244514,180.247304 L69.8244514,180.247304 C97.6551724,169.641391 137.351097,153.766957 129.956113,127.702957 L129.956113,127.702957 C125.420063,111.722087 103.824451,105.990261 99.0689655,104.913391 L99.0689655,104.913391 C99.7899687,104.637913 100.504702,104.368696 101.210031,104.099478 L101.210031,104.099478 C102.445141,103.626783 103.661442,103.163478 104.846395,102.712696 L104.846395,102.712696 C105.984326,102.277565 107.094044,101.851826 108.172414,101.429217 L108.172414,101.429217 C125.191223,94.8177391 132.974922,91.1238261 142.824451,86.4469565 L142.824451,86.4469565 C145.532915,85.1572174 148.401254,83.8017391 151.655172,82.2834783 L151.655172,82.2834783 C191.420063,63.7794783 174.689655,26.4866087 174.564263,26.2361739 L174.564263,26.2361739 C174.454545,25.9262609 164.780564,0.466434783 136.22884,0.428869565 L136.22884,0.428869565 L136.094044,0.428869565 Z" id="path-3"></path>
        <linearGradient x1="93.7992929%" y1="6.44225589%" x2="5.79565543%" y2="95.1110618%" id="linearGradient-5">
            <stop stop-color="#CE6CFF" offset="0%"></stop>
            <stop stop-color="#3C54F0" offset="100%"></stop>
        </linearGradient>
        <path d="M110.61442,3.92556522 C109.909091,4.19478261 109.194357,4.464 108.473354,4.73947826 L108.473354,4.73947826 C108.435737,4.73008696 108.376176,4.71756522 108.338558,4.70504348 L108.338558,4.70504348 C80.5109718,15.314087 40.8119122,31.1885217 48.2068966,57.2493913 L48.2068966,57.2493913 C52.7805643,73.3648696 74.7178683,79.0622609 79.2288401,80.0733913 L79.2288401,80.0733913 C104.445141,70.466087 104.476489,70.538087 79.2288401,80.1547826 L79.2288401,80.1547826 C78.460815,80.4490435 77.6990596,80.7401739 76.9498433,81.0250435 L76.9498433,81.0250435 C75.7115987,81.4946087 74.4984326,81.957913 73.3134796,82.4118261 L73.3134796,82.4118261 C72.1786834,82.8438261 71.0721003,83.2726957 69.9937304,83.6890435 L69.9937304,83.6890435 C52.9811912,90.3005217 45.2037618,93.9913043 35.354232,98.6650435 L35.354232,98.6650435 C32.6426332,99.957913 29.7742947,101.316522 26.507837,102.834783 L26.507837,102.834783 C5.03134796,112.830261 0.0344827586,128.30713 0,140.465739 L0,140.465739 L0,140.719304 C0.0282131661,150.949565 3.54231975,158.772522 3.59874608,158.885217 L3.59874608,158.885217 C3.71159875,159.192 13.3887147,184.695652 41.9937304,184.695652 L41.9937304,184.695652 C47.6050157,184.695652 53.9435737,183.715826 61.0783699,181.36487 L61.0783699,181.36487 C84.9404389,173.526261 112.278997,160.34087 142.329154,142.184348 L142.329154,142.184348 C171.203762,124.735304 183.733542,92.9394783 175.031348,59.1902609 L175.031348,59.1902609 C167.645768,30.5749565 143.639498,8.48034783 114.250784,2.53878261 L114.250784,2.53878261 C113.065831,2.98956522 111.84953,3.45286957 110.61442,3.92556522" id="path-6"></path>
        <linearGradient x1="80.0125457%" y1="25.3212497%" x2="2.39000731%" y2="100%" id="linearGradient-8">
            <stop stop-color="#00DFC1" offset="0%"></stop>
            <stop stop-color="#3C54F0" offset="100%"></stop>
        </linearGradient>
        <path d="M1.18495298,54.1189565 C5.75862069,70.2344348 27.6959248,75.9318261 32.2068966,76.9429565 L32.2068966,76.9429565 C60.0376176,66.3370435 99.7304075,50.4626087 92.338558,24.3986087 L92.338558,24.3986087 C87.7648903,8.28626087 65.8338558,2.58886957 61.3166144,1.5746087 L61.3166144,1.5746087 C33.4890282,12.1836522 -6.21003135,28.058087 1.18495298,54.1189565" id="path-9"></path>
        <linearGradient x1="95.9995882%" y1="21.3659212%" x2="3.57501197%" y2="79.6552019%" id="linearGradient-11">
            <stop stop-color="#FFCE6C" offset="0%"></stop>
            <stop stop-color="#FF7636" offset="100%"></stop>
        </linearGradient>
    </defs>
    <g id="Page-1" stroke="none" stroke-width="1" fill="none" fill-rule="evenodd">
        <g id="Group" transform="translate(0.000000, -3.000000)">
            <g id="Group-23" transform="translate(0.000000, 2.617043)">
                <g id="Group-13" transform="translate(0.000000, 0.084835)">
                    <path d="M259.865831,121.398887 C259.865831,114.546365 265.840752,109.68167 274.03511,109.68167 C282.887774,109.68167 288.646395,114.987757 289.972414,123.386713 L312.774922,123.386713 C310.781191,102.606887 295.505329,90.6705391 274.03511,90.6705391 C250.348589,90.6705391 237.285893,105.702887 237.285893,121.398887 C237.285893,160.526191 291.963009,149.031235 291.963009,168.928278 C291.963009,174.675757 286.8721,179.759583 276.467712,179.759583 C267.169906,179.759583 258.981818,174.453496 257.8721,164.727235 L235.072727,164.727235 C236.401881,185.2848 253.226332,198.770713 276.467712,198.770713 C297.718495,198.770713 314.765517,186.831235 314.765517,168.928278 C314.765517,129.578713 259.865831,141.07367 259.865831,121.398887" id="Fill-1" fill="#000000"></path>
                    <path d="M397.564263,151.685217 C397.564263,167.822609 390.260188,177.77113 375.203762,177.54887 C360.15047,177.54887 352.846395,167.822609 352.846395,151.462957 L352.846395,92.88 L329.601881,92.88 L329.601881,153.231652 C329.601881,179.758957 346.648903,198.770087 375.203762,198.770087 C402.874608,198.992348 420.808777,179.536696 420.808777,153.450783 L420.808777,92.88 L397.564263,92.88 L397.564263,151.685217 Z" id="Fill-3" fill="#000000"></path>
                    <mask id="mask-2" fill="white">
                        <use xlink:href="#path-1"></use>
                    </mask>
                    <g id="Clip-6"></g>
                    <polygon id="Fill-5" fill="#000000" mask="url(#mask-2)" points="437.636364 196.56 460.880878 196.56 460.880878 92.88 437.636364 92.88"></polygon>
                    <path d="M449.370846,44.9095304 C440.957053,44.9095304 434.317555,51.3206609 434.317555,59.7196174 C434.317555,67.8994435 440.957053,74.3105739 449.370846,74.3105739 C457.562069,74.3105739 464.201567,67.8994435 464.201567,59.7196174 C464.201567,51.3206609 457.562069,44.9095304 449.370846,44.9095304" id="Fill-7" fill="#000000" mask="url(#mask-2)"></path>
                    <path d="M519.772414,58.1741217 L496.308464,58.1741217 L496.308464,92.8812522 L477.712853,92.8812522 L477.712853,112.111513 L496.531034,112.111513 L496.531034,160.968209 C496.531034,184.844035 512.248903,198.107687 533.499687,198.107687 C538.37116,198.107687 543.016928,197.444035 548.107837,196.119861 L548.107837,176.883339 C543.681505,177.10873 541.248903,177.10873 539.919749,177.10873 C525.973041,177.10873 519.772414,172.244035 519.772414,158.09447 L519.772414,112.111513 L550.101567,112.111513 L550.101567,92.8812522 L519.772414,92.8812522 L519.772414,58.1741217 Z" id="Fill-8" fill="#000000" mask="url(#mask-2)"></path>
                    <path d="M582.639498,121.398887 C582.639498,114.546365 588.617555,109.68167 596.808777,109.68167 C605.664577,109.68167 611.420063,114.987757 612.746082,123.386713 L635.548589,123.386713 C633.554859,102.606887 618.282132,90.6705391 596.808777,90.6705391 C573.122257,90.6705391 560.059561,105.702887 560.059561,121.398887 C560.059561,160.526191 614.739812,149.031235 614.739812,168.928278 C614.739812,174.675757 609.648903,179.759583 599.244514,179.759583 C589.946708,179.759583 581.755486,174.453496 580.648903,164.727235 L557.846395,164.727235 C559.175549,185.2848 576,198.770713 599.244514,198.770713 C620.495298,198.770713 637.54232,186.831235 637.54232,168.928278 C637.54232,129.578713 582.639498,141.07367 582.639498,121.398887" id="Fill-9" fill="#000000" mask="url(#mask-2)"></path>
                    <path d="M797.155799,90.6708522 C776.347022,90.6708522 765.497492,104.156765 763.284326,109.459722 L762.845455,109.459722 C760.406583,104.156765 749.560188,90.6708522 728.751411,90.6708522 C701.522571,90.6708522 685.14326,109.240591 685.14326,136.209287 L685.14326,196.560939 L708.387774,196.560939 L708.387774,137.977983 C708.387774,121.840591 715.469279,111.89207 729.857994,111.89207 C744.246708,111.89207 751.331348,121.840591 751.331348,138.200243 L751.331348,196.7832 L774.575862,196.7832 L774.575862,138.200243 C774.575862,121.840591 781.660502,111.89207 796.046082,111.89207 C810.437931,111.89207 817.522571,121.840591 817.522571,137.977983 L817.522571,196.560939 L840.767085,196.560939 L840.767085,136.209287 C840.767085,109.240591 824.60721,90.6708522 797.155799,90.6708522" id="Fill-10" fill="#000000" mask="url(#mask-2)"></path>
                    <path d="M878.850157,135.546887 C881.947335,120.7368 893.019436,111.007409 908.295298,111.007409 C923.126019,111.007409 934.417555,122.283235 935.740439,135.546887 L878.850157,135.546887 Z M908.295298,90.6721043 C877.301567,90.6721043 855.605643,113.217496 855.605643,144.831757 C855.605643,176.665148 877.521003,198.769148 908.514734,198.769148 C930.64953,198.769148 949.690282,186.391409 956.110345,165.389322 L933.307837,165.389322 C928.881505,174.010539 920.909718,178.433843 908.295298,178.433843 C893.238871,178.433843 881.947335,169.145843 878.850157,153.230713 L958.546082,153.230713 C958.765517,149.915583 958.765517,148.146887 958.765517,144.831757 C958.765517,113.881148 936.630721,90.6721043 908.295298,90.6721043 L908.295298,90.6721043 Z" id="Fill-11" fill="#000000" mask="url(#mask-2)"></path>
                    <path d="M983.563009,169.36873 C975.149216,169.36873 968.509718,175.779861 968.509718,184.178817 C968.509718,192.358643 975.149216,198.769774 983.563009,198.769774 C991.754232,198.769774 998.39373,192.358643 998.39373,184.178817 C998.39373,175.779861 991.754232,169.36873 983.563009,169.36873" id="Fill-12" fill="#000000" mask="url(#mask-2)"></path>
                </g>
                <g id="Group-16" transform="translate(9.404389, 0.084835)">
                    <mask id="mask-4" fill="white">
                        <use xlink:href="#path-3"></use>
                    </mask>
                    <g id="Clip-15"></g>
                    <path d="M136.094044,0.428869565 C130.501567,0.43826087 124.191223,1.41808696 117.087774,3.7533913 L117.087774,3.7533913 C93.2163009,11.5982609 65.8808777,24.7805217 35.8369906,42.9370435 L35.8369906,42.9370435 C6.95924765,60.386087 -5.57053292,92.1850435 3.13793103,125.928 L3.13793103,125.928 C10.5172414,154.546435 34.523511,176.641043 63.9090909,182.585739 L63.9090909,182.585739 C65.0940439,182.131826 66.30721,181.668522 67.5454545,181.198957 L67.5454545,181.198957 C68.2946708,180.914087 69.0564263,180.622957 69.8244514,180.328696 L69.8244514,180.328696 C65.3134796,179.317565 65.3134796,179.236174 69.8244514,180.247304 L69.8244514,180.247304 C97.6551724,169.641391 137.351097,153.766957 129.956113,127.702957 L129.956113,127.702957 C125.420063,111.722087 103.824451,105.990261 99.0689655,104.913391 L99.0689655,104.913391 C99.7899687,104.637913 100.504702,104.368696 101.210031,104.099478 L101.210031,104.099478 C102.445141,103.626783 103.661442,103.163478 104.846395,102.712696 L104.846395,102.712696 C105.984326,102.277565 107.094044,101.851826 108.172414,101.429217 L108.172414,101.429217 C125.191223,94.8177391 132.974922,91.1238261 142.824451,86.4469565 L142.824451,86.4469565 C145.532915,85.1572174 148.401254,83.8017391 151.655172,82.2834783 L151.655172,82.2834783 C191.420063,63.7794783 174.689655,26.4866087 174.564263,26.2361739 L174.564263,26.2361739 C174.454545,25.9262609 164.780564,0.466434783 136.22884,0.428869565 L136.22884,0.428869565 L136.094044,0.428869565 Z" id="Fill-14" fill="url(#linearGradient-5)" mask="url(#mask-4)"></path>
                </g>
                <g id="Group-19" transform="translate(0.000000, 100.258748)">
                    <mask id="mask-7" fill="white">
                        <use xlink:href="#path-6"></use>
                    </mask>
                    <g id="Clip-18"></g>
                    <path d="M110.61442,3.92556522 C109.909091,4.19478261 109.194357,4.464 108.473354,4.73947826 L108.473354,4.73947826 C108.435737,4.73008696 108.376176,4.71756522 108.338558,4.70504348 L108.338558,4.70504348 C80.5109718,15.314087 40.8119122,31.1885217 48.2068966,57.2493913 L48.2068966,57.2493913 C52.7805643,73.3648696 74.7178683,79.0622609 79.2288401,80.0733913 L79.2288401,80.0733913 C104.445141,70.466087 104.476489,70.538087 79.2288401,80.1547826 L79.2288401,80.1547826 C78.460815,80.4490435 77.6990596,80.7401739 76.9498433,81.0250435 L76.9498433,81.0250435 C75.7115987,81.4946087 74.4984326,81.957913 73.3134796,82.4118261 L73.3134796,82.4118261 C72.1786834,82.8438261 71.0721003,83.2726957 69.9937304,83.6890435 L69.9937304,83.6890435 C52.9811912,90.3005217 45.2037618,93.9913043 35.354232,98.6650435 L35.354232,98.6650435 C32.6426332,99.957913 29.7742947,101.316522 26.507837,102.834783 L26.507837,102.834783 C5.03134796,112.830261 0.0344827586,128.30713 0,140.465739 L0,140.465739 L0,140.719304 C0.0282131661,150.949565 3.54231975,158.772522 3.59874608,158.885217 L3.59874608,158.885217 C3.71159875,159.192 13.3887147,184.695652 41.9937304,184.695652 L41.9937304,184.695652 C47.6050157,184.695652 53.9435737,183.715826 61.0783699,181.36487 L61.0783699,181.36487 C84.9404389,173.526261 112.278997,160.34087 142.329154,142.184348 L142.329154,142.184348 C171.203762,124.735304 183.733542,92.9394783 175.031348,59.1902609 L175.031348,59.1902609 C167.645768,30.5749565 143.639498,8.48034783 114.250784,2.53878261 L114.250784,2.53878261 C113.065831,2.98956522 111.84953,3.45286957 110.61442,3.92556522" id="Fill-17" fill="url(#linearGradient-8)" mask="url(#mask-7)"></path>
                </g>
                <g id="Group-22" transform="translate(47.021944, 103.389183)">
                    <mask id="mask-10" fill="white">
                        <use xlink:href="#path-9"></use>
                    </mask>
                    <g id="Clip-21"></g>
                    <path d="M1.18495298,54.1189565 C5.75862069,70.2344348 27.6959248,75.9318261 32.2068966,76.9429565 L32.2068966,76.9429565 C60.0376176,66.3370435 99.7304075,50.4626087 92.338558,24.3986087 L92.338558,24.3986087 C87.7648903,8.28626087 65.8338558,2.58886957 61.3166144,1.5746087 L61.3166144,1.5746087 C33.4890282,12.1836522 -6.21003135,28.058087 1.18495298,54.1189565" id="Fill-20" fill="url(#linearGradient-11)" mask="url(#mask-10)"></path>
                </g>
            </g>
        </g>
    </g>
</svg>