<svg xmlns="http://www.w3.org/2000/svg" xmlns:xlink="http://www.w3.org/1999/xlink" viewBox="0 0 998.39 284.44"><defs><style>.cls-1{fill:#fff;fill-rule:evenodd;}.cls-2{mask:url(#mask);}.cls-3{mask:url(#mask-2-2);}</style><mask id="mask" x="0" y="0" width="187.57" height="284.44" maskUnits="userSpaceOnUse"><g id="mask-2"><polygon id="path-1" class="cls-1" points="0 0 187.57 0 187.57 284.44 0 284.44 0 0"/></g></mask><mask id="mask-2-2" x="0" y="0" width="998.39" height="284.44" maskUnits="userSpaceOnUse"><g id="mask-4"><polygon id="path-3" class="cls-1" points="0 284.44 998.4 284.44 998.4 0 0 0 0 284.44"/></g></mask></defs><g id="Layer_2" data-name="Layer 2"><g id="Layer_1-2" data-name="Layer 1"><g id="Page-1"><g id="Group"><g id="Group-16"><g id="Group-3"><g class="cls-2"><path id="Fill-1" class="cls-1" d="M139.36,127.36c7.39,26.06-32.3,41.94-60.13,52.54-4.51-1-26.45-6.71-31-22.82-7.4-26.07,32.3-41.94,60.13-52.55,4.52,1,26.45,6.72,31,22.83M152.23,86c2.71-1.29,5.58-2.65,8.83-4.17,39.77-18.5,23-55.79,22.91-56S170-11,126.49,3.32c-23.87,7.85-51.2,21-81.25,39.19C16.37,60,3.84,91.76,12.54,125.5c7.38,28.62,31.39,50.71,60.78,56.65L70,183.44c-17,6.61-24.79,10.3-34.64,15-2.71,1.29-5.58,2.65-8.84,4.17-39.77,18.51-23,55.8-22.91,56S13.39,284.44,42,284.44a61.05,61.05,0,0,0,19.09-3.33c23.87-7.84,51.2-21,81.25-39.18,28.88-17.45,41.4-49.25,32.7-83-7.38-28.61-31.39-50.71-60.78-56.65l3.33-1.28c17-6.61,24.8-10.31,34.65-15"/></g></g><path id="Fill-4" class="cls-1" d="M259.87,122.39c0-6.85,6-11.72,14.17-11.72,8.85,0,14.61,5.31,15.93,13.71h22.81c-2-20.78-17.27-32.72-38.74-32.72-23.69,0-36.75,15-36.75,30.73,0,39.13,54.67,27.63,54.67,47.53,0,5.75-5.09,10.83-15.49,10.83-9.3,0-17.49-5.31-18.6-15h-22.8c1.33,20.55,18.16,34,41.4,34,21.25,0,38.3-11.94,38.3-29.84,0-39.35-54.9-27.86-54.9-47.53"/><path id="Fill-6" class="cls-1" d="M397.56,152.68c0,16.13-7.3,26.08-22.36,25.86-15.05,0-22.35-9.73-22.35-26.09V93.87H329.6v60.35c0,26.53,17,45.54,45.6,45.54,27.68.22,45.61-19.23,45.61-45.32V93.87H397.56Z"/><g class="cls-3"><polygon id="Fill-8" class="cls-1" points="437.64 197.55 460.88 197.55 460.88 93.87 437.64 93.87 437.64 197.55"/></g><g class="cls-3"><path id="Fill-10" class="cls-1" d="M449.37,45.9A14.7,14.7,0,1,0,464.2,60.71,14.73,14.73,0,0,0,449.37,45.9"/></g><g class="cls-3"><path id="Fill-11" class="cls-1" d="M519.77,59.16H496.31V93.87h-18.6V113.1h18.82V162c0,23.87,15.72,37.14,37,37.14a56.91,56.91,0,0,0,14.61-2V177.87c-4.43.23-6.86.23-8.19.23-13.95,0-20.15-4.87-20.15-19v-46H550.1V93.87H519.77Z"/></g><g class="cls-3"><path id="Fill-12" class="cls-1" d="M582.64,122.39c0-6.85,6-11.72,14.17-11.72,8.86,0,14.61,5.31,15.94,13.71h22.8c-2-20.78-17.27-32.72-38.74-32.72-23.69,0-36.75,15-36.75,30.73,0,39.13,54.68,27.63,54.68,47.53,0,5.75-5.09,10.83-15.49,10.83-9.3,0-17.49-5.31-18.6-15h-22.8c1.33,20.55,18.15,34,41.4,34,21.25,0,38.29-11.94,38.29-29.84,0-39.35-54.9-27.86-54.9-47.53"/></g><g class="cls-3"><path id="Fill-13" class="cls-1" d="M797.16,91.66c-20.81,0-31.66,13.49-33.87,18.79h-.44c-2.44-5.3-13.29-18.79-34.1-18.79-27.23,0-43.61,18.57-43.61,45.54v60.35h23.25V139c0-16.14,7.08-26.09,21.47-26.09s21.47,10,21.47,26.31v58.58h23.25V139.19c0-16.36,7.08-26.31,21.47-26.31s21.47,10,21.47,26.09v58.58h23.25V137.2c0-27-16.16-45.54-43.61-45.54"/></g><g class="cls-3"><path id="Fill-14" class="cls-1" d="M878.85,136.54C882,121.73,893,112,908.3,112a27.44,27.44,0,0,1,27.44,24.54ZM908.3,91.66c-31,0-52.69,22.55-52.69,54.16,0,31.84,21.91,53.94,52.91,53.94,22.13,0,41.17-12.38,47.59-33.38h-22.8c-4.43,8.62-12.4,13-25,13-15.06,0-26.35-9.28-29.45-25.2h79.7c.22-3.31.22-5.08.22-8.4,0-30.95-22.14-54.16-50.47-54.16Z"/></g><g class="cls-3"><path id="Fill-15" class="cls-1" d="M983.56,170.36a14.7,14.7,0,1,0,14.83,14.81,14.73,14.73,0,0,0-14.83-14.81"/></g></g></g></g></g></g></svg>